<svg width="900" height="900" viewBox="0 0 900 900" fill="none" xmlns="http://www.w3.org/2000/svg">
<g clip-path="url(#clip0_312_1967)">
<rect width="900" height="900" rx="450" fill="white"/>
<mask id="path-2-inside-1_312_1967" fill="white">
<path fill-rule="evenodd" clip-rule="evenodd" d="M226.23 337.15C225.287 339.598 225.051 343.368 225.63 346.709L226.086 349.339L221.897 349.233C217.809 349.128 217.593 349.238 212.93 353.802C208.681 357.961 208.147 358.786 208.092 361.274C208.048 363.249 208.698 364.757 210.295 366.395L212.56 368.717L218.131 365.251C225.746 360.515 225.973 360.239 226.597 354.999L227.146 350.385L229.826 350.236C235.689 349.912 243.095 342.302 242.042 337.683C241.432 335.01 236.877 332.048 233.739 332.284C230.827 332.503 227.087 334.928 226.23 337.15ZM181.126 384.279C181.691 385.606 181.979 385.766 182.092 384.816C182.181 384.072 181.818 383.223 181.287 382.927C180.735 382.62 180.667 383.2 181.126 384.279ZM241.133 326.87C239.905 329.194 240.549 333.233 242.532 335.65C243.035 336.263 245.299 336.549 247.562 336.286C251.005 335.887 252.051 335.355 253.957 333.037C255.211 331.512 256.664 328.504 257.186 326.35C258.013 322.947 257.846 322.079 255.91 319.721C253.959 317.343 253.389 317.147 251.297 318.128C247.615 319.855 242.527 324.23 241.133 326.87ZM193.313 376.874C192.951 379.918 193.307 381.148 195.223 383.484C198.014 386.886 197.242 388.268 192.896 387.646C189.107 387.102 184.795 389.447 180.185 394.559C176.021 399.176 175.122 402.141 176.848 405.572C177.89 407.643 177.756 408.017 175.009 410.705C173.38 412.3 171.656 414.337 171.179 415.231C170.415 416.663 170.317 416.624 170.358 414.905C170.439 411.576 168.874 414.086 167.742 419.102L166.716 423.648L171.417 423.444C174.003 423.332 177.269 423.628 178.675 424.102C180.192 424.613 181.763 424.443 182.538 423.684C183.258 422.979 184.529 418.892 185.364 414.6C187.032 406.02 188.373 404.333 193.84 403.943C196.509 403.753 196.522 403.741 194.745 403.146C192.261 402.315 192.632 400.237 195.823 397.113C197.773 395.205 198.532 393.565 199.126 389.98L199.898 385.325L204.665 381.709C211.45 376.564 211.778 376.159 211.563 373.232C211.3 369.648 207.666 366.892 203.33 366.987C200.594 367.046 199.384 367.628 196.861 370.096C194.321 372.583 193.678 373.812 193.313 376.874ZM172.336 396.461C171.729 397.652 171.472 398.62 171.765 398.613C172.39 398.6 176.284 392.636 175.941 392.218C175.556 391.748 173.514 394.152 172.336 396.461ZM258.797 317.013C257.943 320.037 260.987 324.261 263.975 324.196C268.98 324.086 272.621 320.774 273.214 315.79C273.743 311.345 271.341 307.669 268.068 307.915C265.393 308.116 259.745 313.659 258.797 317.013ZM169.729 405.346C169.687 407.066 169.786 407.105 170.55 405.673C171.027 404.779 171.914 403.553 172.522 402.949C173.476 401.999 173.423 401.901 172.128 402.222C170.067 402.732 169.784 403.101 169.729 405.346ZM310.388 290.167C314.712 292.981 317.399 296.79 319.54 303.138C320.723 306.644 321.663 309.976 321.63 310.543C321.574 311.532 314.481 315.884 311.125 316.988C310.236 317.282 308.131 318.538 306.445 319.781C303.802 321.731 302.9 321.873 299.882 320.814C295.882 319.411 287.337 318.437 287.227 319.372C287.185 319.717 288.306 320.016 289.717 320.04C292.791 320.091 299.615 322.505 299.497 323.499C299.451 323.887 295.614 326.374 290.97 329.026C286.328 331.678 280.051 335.444 277.022 337.394C271.041 341.244 252.275 357.6 251.789 359.386C251.624 359.992 249.546 362.733 247.17 365.478C240.361 373.346 237.398 378.301 229.938 394.293C226.104 402.513 222.33 410.441 221.552 411.91C220.774 413.379 219.518 417.348 218.762 420.729C217.412 426.76 216.967 427.766 214.966 429.304C214.418 429.725 214.33 430.156 214.771 430.262C216.635 430.713 214.668 440.064 212.455 441.274C211.349 441.878 211.205 442.277 211.957 442.645C212.54 442.931 212.842 444.231 212.628 445.534C212.254 447.801 211.963 448.054 205.937 451.362C202.472 453.264 199.671 454.362 199.712 453.802C199.754 453.242 199.58 453.354 199.325 454.051C199.07 454.747 198.66 455.071 198.412 454.769C198.165 454.469 196.435 454.831 194.566 455.577L191.17 456.932L194.624 456.746C196.524 456.644 200.644 456.074 203.78 455.479L209.482 454.397L206.501 458.063C201.417 464.319 196.325 469.042 192.118 471.407C186.945 474.314 186.823 474.464 190.287 473.639C191.869 473.263 196.679 470.947 200.976 468.493C208.263 464.332 208.675 464.205 207.105 466.604C206.179 468.018 205.647 469.448 205.923 469.784C206.687 470.716 199.696 477.184 195.757 479.187C193.832 480.166 192.426 481.173 192.632 481.424C192.839 481.676 195.924 480.456 199.489 478.713C204.859 476.088 205.96 475.828 205.914 477.201C205.877 478.313 204.463 480.223 201.608 483.018C198.317 486.24 197.526 487.388 198.11 488.1C198.626 488.729 200.021 488.121 202.538 486.171C204.559 484.605 206.352 483.503 206.524 483.721C206.695 483.94 206.312 485.781 205.672 487.811C204.513 491.491 204.817 493.442 206.32 491.971C206.755 491.545 206.954 492.777 206.763 494.709C206.436 497.997 206.709 498.576 211.045 503.8C215.559 509.237 215.673 509.312 215.562 506.741C215.499 505.29 216.391 496.023 217.545 486.147C219.571 468.802 219.702 468.248 221.376 469.885C224.004 472.455 231.162 477.567 236.135 480.423C253.143 490.193 277.209 491.158 296.883 482.856C306.623 478.747 312.634 474.301 325.508 461.687C335.902 451.503 337.758 449.362 342.586 442.005C352.03 427.607 359.112 410.724 361.384 397.197C364.949 375.966 357.131 345.229 345.35 334.152C341.486 330.52 335.29 326.263 331.648 324.736C326.793 322.702 326.474 322.351 328.062 320.8C328.876 320.005 335.412 316.946 342.584 314.003C349.756 311.06 356.126 308.438 356.738 308.178C357.57 307.824 356.931 306.582 354.214 303.27C350.065 298.213 350.585 298.219 341.461 303.111C333.461 307.4 332.82 307.43 333.137 303.501C333.485 299.175 335.821 278.099 333.734 280.142C334.115 274.19 328.501 288.966 328.245 298.275C328.074 304.512 327.498 308.845 326.774 309.333C325.339 310.3 325.183 310.049 321.211 300.372C318.158 292.932 317.958 292.646 314.311 290.491C310.279 288.109 306.784 287.819 310.388 290.167ZM242.711 360.14C243.269 360.274 244.601 360.089 245.67 359.729C247.064 359.26 247.328 359.005 246.602 358.83C246.044 358.695 244.712 358.88 243.643 359.24C242.249 359.709 241.985 359.965 242.711 360.14ZM266.484 356.784C272.042 352.418 273.695 352.075 276.7 354.664C278.757 356.435 280.203 356.788 283.523 356.33C285.839 356.012 287.694 355.339 287.643 354.836C287.594 354.331 285.91 354.19 283.9 354.522C279.578 355.234 275.54 352.751 275.913 349.613C276.115 347.917 276.757 347.311 281.587 344.253C284.582 342.356 288.336 340.54 289.929 340.217C292.108 339.775 292.904 339.243 293.144 338.065C293.553 336.065 296.785 335.838 298.314 337.701C299.226 338.814 299.421 338.732 299.756 337.093C300.088 335.464 300.554 335.225 303.099 335.378C304.876 335.486 306.733 334.893 307.754 333.893C310.226 331.474 310.709 332.875 309.68 339.467C309.177 342.683 309.163 344.93 309.649 344.461C310.854 343.298 312.198 339.894 312.719 336.686C313.181 333.848 315.15 332.57 315.779 334.701C316.033 335.566 316.487 335.553 317.17 334.666C317.728 333.941 318.724 333.207 319.384 333.035C321.041 332.6 321.934 336.697 320.655 338.861C318.707 342.155 321.427 341.423 325.144 337.653C327.182 335.586 329.007 334.085 329.199 334.319C329.391 334.552 329.161 336.25 328.688 338.092C327.595 342.351 328.129 342.938 331.75 341.457C334.646 340.274 334.634 340.297 330.54 343.646C327.724 345.949 326.587 347.253 326.977 347.729C327.293 348.113 328.465 347.533 329.585 346.437C330.702 345.343 332.798 344.032 334.242 343.524C336.665 342.67 337.176 342.92 340.98 346.818C343.243 349.139 345.053 351.493 345 352.051C344.949 352.608 342.993 354.089 340.658 355.341C335.027 358.359 333.946 360.417 339.406 357.724C344.994 354.967 346.839 355.108 347.075 358.311C347.171 359.634 347.515 361.038 347.838 361.432C348.161 361.825 348.362 363.72 348.286 365.641C348.21 367.563 348.506 369.572 348.945 370.106C349.557 370.853 349.202 371.446 347.407 372.676L345.073 374.276L347.521 374.648C348.869 374.852 350.353 374.661 350.821 374.224C351.288 373.786 352.01 373.842 352.426 374.349C352.862 374.88 352.669 375.513 351.972 375.845C351.308 376.163 350.812 376.917 350.873 377.523C350.932 378.128 350.378 379.215 349.64 379.937C348.442 381.11 348.604 381.573 351.161 384.268C353.843 387.094 353.939 387.433 352.696 389.623C351.632 391.497 350.737 392.076 348.188 392.536C343.239 393.429 344.25 394.883 349.58 394.538L354.36 394.229L353.413 398.135C352.629 401.37 352.085 402.224 350.252 403.105C347.706 404.329 348.115 405.503 351.226 405.908C353.875 406.252 354.175 408.28 351.906 410.502C350.464 411.914 350.221 412.687 350.944 413.568C351.528 414.28 351.382 415.806 350.575 417.429C349.462 419.668 348.851 420.194 346.898 420.6C343.785 421.248 341.956 423.126 343.092 424.511C343.589 425.117 343.672 426.596 343.273 427.798C342.654 429.675 342.29 429.95 340.691 429.751C339.07 429.548 338.845 429.724 338.933 431.114C338.989 431.991 339.469 433.246 339.998 433.905C340.858 434.973 340.545 435.438 337.011 438.325C334.839 440.099 333.096 441.901 333.139 442.331C333.182 442.761 332.038 444.178 330.598 445.481C327.353 448.42 326.887 450.181 328.753 452.455C329.55 453.428 330.062 454.642 329.89 455.153C329.543 456.191 327.63 455.483 326.257 453.809C325.191 452.51 320.214 452.83 318.719 454.294C318.137 454.864 317.063 454.932 316.332 454.448C315.52 453.91 314.737 454.069 314.325 454.855C313.931 455.605 313.461 455.737 313.2 455.172C312.953 454.637 312.271 454.437 311.684 454.728C311.096 455.019 310.98 455.703 311.428 456.249C312.494 457.548 310.715 459.255 308.865 458.709C307.773 458.387 307.254 458.723 306.739 460.088C306.206 461.499 305.469 461.881 303.363 461.839C301.882 461.811 300.194 462.254 299.613 462.823C299.032 463.392 297.836 463.672 296.956 463.445C295.45 463.056 295.357 463.161 295.354 465.228C295.353 466.436 295.076 467.088 294.74 466.678C294.403 466.268 293.668 466.381 293.107 466.931C292.545 467.481 291.559 467.673 290.916 467.358C290.274 467.045 289.438 467.16 289.059 467.614C285.48 471.921 284.386 470.644 285.142 463.039C285.866 455.749 284.983 454.255 283.592 460.417C283.022 462.946 282.76 465.264 283.01 465.569C283.26 465.873 282.98 467.321 282.387 468.785C281.391 471.241 281.169 471.398 279.478 470.819C278.472 470.476 277.173 470.73 276.591 471.384C275.184 472.971 274.547 472.017 274.405 468.108C274.264 464.22 273.171 463.848 272.732 467.538C272.401 470.312 270.294 472.048 269.069 470.556C268.323 469.647 267.535 470.093 265.166 472.759C263.371 474.779 262.948 474.202 262.67 469.35C262.352 463.782 261.584 463.257 258.236 466.316C254.709 469.536 254.078 469.564 254.303 466.487C254.476 464.123 254.441 464.083 253.195 465.267C250.113 468.198 246.915 467.076 244.306 462.147C243.786 461.162 242.836 460.953 241.479 461.524C238.083 462.95 237.302 460.081 240.112 456.509C241.407 454.863 241.791 454.106 240.967 454.824C240.142 455.543 238.313 456.281 236.903 456.465C234.639 456.759 234.431 456.62 235.128 455.28C235.774 454.038 235.396 453.279 233.053 451.108C230.373 448.626 230.279 448.34 231.601 446.69C232.828 445.158 232.734 444.579 230.876 442.269C229.701 440.805 228.776 439.296 228.821 438.913C228.954 437.803 231.768 434.942 233.989 433.662C235.987 432.51 235.973 432.5 233.279 433.162C229.36 434.124 228.56 432.425 230.449 427.149C231.523 424.149 231.738 422.127 231.069 421.312C229.707 419.652 230.951 417.493 233.953 416.309C237.115 415.061 241.616 412.172 241.157 411.684C240.96 411.475 238.956 411.699 236.702 412.181C232.534 413.074 231.336 412.091 233.73 409.747C234.46 409.033 235.831 406.68 236.776 404.518C239.126 399.151 243.987 393.219 245.716 393.614C246.789 393.858 246.898 393.759 246.332 393.05C245.93 392.547 246.183 391.933 246.941 391.572C248.744 390.712 247.869 389.962 244.652 389.61C241.114 389.223 240.826 387.331 244.181 386.524C246.481 385.97 246.579 385.865 245.572 385.058C243.063 383.044 246.031 382.197 250.772 383.573C253.584 384.39 255.729 384.612 255.541 384.066C255.352 383.521 253.352 382.529 251.097 381.862C248.841 381.196 246.937 380.578 246.865 380.491C246.564 380.124 249.502 375.233 251.559 372.678C253.173 370.673 254.155 370.024 255.137 370.314C257.015 370.868 257.671 370.256 257.382 368.224C257.246 367.27 257.851 365.786 258.729 364.927C259.606 364.069 260.275 362.885 260.216 362.294C260.158 361.705 260.721 360.869 261.469 360.438C262.217 360.007 264.474 358.363 266.484 356.784ZM292.891 347.827C293.2 350.351 293.129 352.731 292.733 353.12C292.283 353.56 292.647 353.875 293.704 353.96C295.183 354.077 295.268 353.408 294.388 348.655C293.164 342.044 292.111 341.461 292.891 347.827ZM298.322 343.977C298.068 347.458 299.508 348.692 299.908 345.334C300.086 343.843 299.839 342.406 299.361 342.14C298.793 341.825 298.433 342.461 298.322 343.977ZM264.152 385.078C263.266 386.618 262.458 388.567 262.358 389.411C262.257 390.255 261.761 391.351 261.256 391.846C259.514 393.551 257.729 406.992 258.509 412.533C258.938 415.582 259.286 418.792 259.283 419.668C259.28 420.543 259.717 421.896 260.254 422.674C260.791 423.452 262.341 426.178 263.697 428.731C265.054 431.286 266.838 433.862 267.664 434.457C268.49 435.053 270.058 436.192 271.148 436.99C272.238 437.787 274.237 438.57 275.592 438.727C276.945 438.885 278.259 439.266 278.512 439.574C278.766 439.883 281.394 440.394 284.354 440.71C288.324 441.133 291.608 440.625 296.878 438.772C303.961 436.283 304.083 436.201 311.136 429.18C317.24 423.103 318.524 421.445 320.19 417.49C324.248 407.852 324.571 397.799 321.091 389.529C318.815 384.118 313.132 377.202 308.433 374.124C303.962 371.196 295.503 369.516 289.696 370.404C287.339 370.765 284.721 371.091 283.879 371.129C283.037 371.167 281.944 371.594 281.45 372.077C280.957 372.56 280.229 372.778 279.83 372.563C279.435 372.347 276.779 374.11 273.93 376.481C271.081 378.853 268.567 380.568 268.343 380.294C267.823 379.661 266.214 381.499 264.152 385.078ZM295.832 356.346C295.743 357.799 295.902 357.93 296.751 357.099C297.314 356.548 297.43 355.672 297.005 355.155C296.067 354.011 295.969 354.112 295.832 356.346ZM199.116 460.022C204.672 458.154 205.826 457.044 200.796 458.407C198.632 458.994 196.415 459.918 195.869 460.461C195.323 461.004 196.784 460.807 199.116 460.022ZM294.539 382.338C294.74 383.017 296.015 383.949 297.374 384.407C299.625 385.165 299.85 385.485 299.875 387.98C299.91 391.487 299.017 391.452 295.509 387.812C293.297 385.516 292.81 384.49 293.294 383.145C294.104 380.898 294.113 380.893 294.539 382.338ZM263.243 435.891C263.873 435.601 264.429 435.016 264.48 434.591C264.53 434.166 264.016 434.403 263.335 435.118C262.583 435.908 262.547 436.212 263.243 435.891ZM271.37 441.859C271.427 442.426 271.791 442.578 272.179 442.198C272.567 441.818 272.653 441.225 272.37 440.88C272.087 440.535 271.724 440.382 271.562 440.541C271.4 440.699 271.314 441.292 271.37 441.859ZM382.139 343.345L381.82 346.794L385.276 347.058C389.811 347.406 390.394 346.698 386.442 345.645C383.207 344.782 382.354 343.392 384.044 341.737C384.572 341.22 384.657 340.374 384.233 339.857C383.097 338.472 382.497 339.474 382.139 343.345ZM380.543 351.663C380.53 353.469 380.572 353.468 380.99 351.654C381.428 349.747 381.359 348.887 380.81 349.425C380.672 349.56 380.551 350.568 380.543 351.663ZM380.238 355.796C380.439 356.445 382.101 356.757 383.934 356.49C386.283 356.15 386.652 355.955 385.185 355.831C384.042 355.734 382.379 355.421 381.49 355.136C380.276 354.746 379.963 354.912 380.238 355.796ZM223.269 518.764C224.692 520.498 225.974 520.653 232.283 519.86C241.045 518.758 251.275 515.796 249.431 514.894C248.757 514.565 245.809 514.767 242.88 515.344C239.95 515.921 233.966 516.471 229.582 516.568L221.61 516.741L223.269 518.764ZM342.565 400.427C342.848 400.772 343.399 400.743 343.787 400.363C344.175 399.983 344.075 399.571 343.566 399.448C343.056 399.325 342.508 399.353 342.346 399.512C342.184 399.671 342.283 400.082 342.565 400.427ZM292.237 452.56C291.808 454.303 291.997 454.747 293.158 454.722C294.32 454.696 294.593 454.371 294.483 453.14C294.357 451.739 293.3 449.73 292.928 450.185C292.844 450.285 292.534 451.354 292.237 452.56ZM380.704 365.1C379.823 366.175 379.27 367.623 379.475 368.319C379.758 369.28 380.445 369.002 382.334 367.166C383.954 365.591 387.217 363.962 391.687 362.494C398.253 360.339 400.654 358.408 394.947 359.874C393.446 360.259 390.933 360.659 389.363 360.761C385.867 360.987 382.823 362.513 380.704 365.1ZM394.346 354.827C395.208 355.848 395.642 356.049 395.312 355.273C394.98 354.497 394.274 353.663 393.744 353.416C393.213 353.171 393.484 353.806 394.346 354.827ZM300.941 445.543C301.012 446.262 301.39 446.843 301.78 446.834C302.837 446.811 302.811 445.349 301.742 444.756C300.994 444.339 300.836 444.493 300.941 445.543ZM342.29 405.219C342.346 405.786 342.693 405.956 343.059 405.597C343.426 405.238 343.68 404.48 343.623 403.914C343.567 403.347 343.221 403.177 342.854 403.537C342.488 403.895 342.234 404.652 342.29 405.219ZM380.875 373.212C380.936 373.834 379.647 377.414 378.012 381.167C374.226 389.858 373.024 393.536 372.123 399.192C371.701 401.833 369.885 406.524 367.796 410.37C365.6 414.409 364.002 418.604 363.703 421.118C362.937 427.554 356.1 441.216 345.503 457.486C342.908 461.472 342.876 461.749 344.201 468.982C345.691 477.114 349.746 484.506 352.851 484.754C355.43 484.961 355.747 483.891 353.811 481.53C350.88 477.958 347.228 461.43 348.988 459.707C349.906 458.809 352.774 465.073 353.989 470.638C354.605 473.454 355.65 476.424 356.31 477.236C356.969 478.048 357.666 480.023 357.857 481.622C358.046 483.222 358.582 484.523 359.046 484.513C360.531 484.481 360.265 481.865 358.473 478.851C357.277 476.839 357.028 475.428 357.675 474.331C358.194 473.455 358.211 472.241 357.714 471.635C357.216 471.028 355.902 467.78 354.796 464.415C353.687 461.05 352.328 457.745 351.774 457.069C351.219 456.393 350.945 455.305 351.164 454.65C351.455 453.781 352.443 454.729 354.819 458.157C356.648 460.797 359.779 464.119 361.967 465.74L365.862 468.626L362.423 464.311C358.052 458.827 354.42 450.6 354.968 447.419C355.385 444.992 355.407 444.994 356.764 447.574C360.377 454.439 369.448 469.072 369.847 468.681C370.685 467.861 369.413 465.2 365.063 458.671C361.153 452.804 358.318 446.077 358.51 443.133C358.551 442.524 361.546 445.779 365.166 450.365C371.569 458.477 371.89 458.756 376.873 460.555L381.996 462.402L386.504 458.009C388.986 455.591 390.822 453.38 390.588 453.095C390.354 452.81 388.958 452.644 387.485 452.726C383.756 452.932 378.205 450.766 374.74 447.755C372.219 445.562 371.781 444.658 371.538 441.125C371.251 436.98 368.858 430.041 366.414 426.267C365.594 424.998 365.44 423.702 366.019 422.918C367.307 421.171 370.556 423.649 372.171 427.614C373.694 431.352 375.53 433.726 376.308 432.964C376.624 432.654 376.221 430.164 375.413 427.431C374.23 423.436 373.269 421.83 370.503 419.237C366.553 415.532 366.889 414.021 371.333 415.507C373.114 416.105 373.983 416.02 373.728 415.273C373.501 414.609 375.299 414.804 377.887 415.724C388.357 419.451 391.981 420.385 391.377 419.209C391.033 418.539 386.85 416.533 382.081 414.755C373.906 411.705 373.398 411.378 373.227 409.051C373.127 407.693 372.524 406.329 371.888 406.017C369.193 404.7 373.122 404.417 377.166 405.635C381.546 406.954 382.117 406.312 378.256 404.407C377.114 403.844 376.215 403.092 376.258 402.735C376.358 401.897 384.976 405.263 386.057 406.563C387.063 407.771 402.264 414.061 404.085 414.021C406.463 413.968 404.478 412.687 396.796 409.315C383.991 403.694 373.852 398.661 373.753 397.876C373.52 396.035 376.472 394.71 380.142 395.015C385.886 395.488 398.117 399.868 402.166 402.902C406.841 406.403 409.395 409.732 409.417 412.356C409.432 413.907 410.812 416.205 414.226 420.367L419.015 426.203L429.015 416.413L453.319 392.622L434.235 400.847C429.488 395.109 433.331 397.008 433.236 399.629C433.185 401.08 430.039 401.752 430.983 403.469C431.007 400.004 430.34 393.549 424.905 391.518C421.744 390.336 422.07 392.209 419.923 392.78C418.1 393.266 416.138 396.562 414.744 396.946C412.318 397.614 411.647 409.418 407.07 403.902C402.39 398.259 402.115 398.077 394.12 395.319C389.628 393.769 383.822 392.074 381.218 391.552C378.278 390.962 376.539 390.148 376.627 389.404C376.889 387.197 383.349 385.569 388.928 386.305C391.921 386.7 394.501 386.892 394.664 386.733C395.52 385.895 385.508 383.741 382.166 384.046C378.512 384.381 378.301 384.277 378.795 382.383C379.086 381.273 380.518 378.852 381.978 377.003C384.357 373.989 385.478 373.339 392.842 370.694C397.358 369.074 400.745 367.672 400.369 367.582C399.596 367.395 381.528 371.331 381.062 371.787C380.897 371.949 380.812 372.591 380.875 373.212ZM344.173 414.238C344.118 415.833 344.403 416.063 346.049 415.756C348.498 415.3 348.934 414.049 347.327 412.092C345.885 410.334 344.266 411.434 344.173 414.238ZM323.824 439.123C324.107 439.467 324.656 439.438 325.044 439.058C325.432 438.678 325.334 438.267 324.824 438.144C324.315 438.021 323.765 438.049 323.603 438.207C323.441 438.366 323.541 438.778 323.824 439.123ZM334.431 428.606C334.714 428.951 335.387 429.114 335.929 428.968C336.471 428.821 336.682 428.421 336.399 428.076C336.116 427.731 335.442 427.567 334.901 427.714C334.358 427.86 334.148 428.261 334.431 428.606ZM394.143 384.167C394.24 384.286 395.939 384.295 397.919 384.185C400.918 384.016 401.196 383.875 399.603 383.339C398 382.8 393.572 383.471 394.143 384.167ZM396.952 389.035C397.713 389.984 404.641 391.663 405.266 391.05C405.596 390.727 400.267 388.84 397.636 388.345C396.346 388.104 396.27 388.183 396.952 389.035ZM276.965 512.797C276.757 514.538 277.698 514.798 279.129 513.396C281.369 511.204 292.824 505.698 305.326 500.808C309.704 499.095 310.711 498.402 311.265 496.73C311.871 494.899 325.896 480.342 327.08 480.317C327.326 480.311 327.365 482.369 327.168 484.888C326.732 490.419 328.001 494.908 332.139 502.484L335.258 508.192L339.076 504.455L342.894 500.717L341.329 497.846C338.511 492.674 337.339 484.346 338.565 478.176C339.195 475.002 339.535 470.999 339.321 469.281L338.931 466.16L331.631 473.306C316.525 488.093 299.892 500.439 286.305 506.947C278.792 510.545 277.106 511.601 276.965 512.797ZM368.354 438.742C368.984 443.824 367.886 444.474 364.876 440.806C362.679 438.127 362.312 437.008 362.681 434.1L363.123 430.609L365.544 433.106C367.134 434.746 368.099 436.68 368.354 438.742ZM376.262 421.704C379.359 424.051 388.337 427.943 389.06 427.252C389.856 426.489 387.587 424.989 381.485 422.244C375.302 419.463 372.984 419.222 376.262 421.704ZM336.505 480.907C336.674 481.952 336.63 483.343 336.411 484.001C336.142 484.802 335.95 484.732 335.828 483.787C335.346 480.057 335.952 477.479 336.505 480.907ZM362.207 473.418C365.386 475.737 366.025 475.987 366.344 475.035C366.773 473.752 363.756 471.585 361.859 471.815C360.513 471.978 360.566 472.221 362.207 473.418Z"/>
</mask>
<path fill-rule="evenodd" clip-rule="evenodd" d="M226.23 337.15C225.287 339.598 225.051 343.368 225.63 346.709L226.086 349.339L221.897 349.233C217.809 349.128 217.593 349.238 212.93 353.802C208.681 357.961 208.147 358.786 208.092 361.274C208.048 363.249 208.698 364.757 210.295 366.395L212.56 368.717L218.131 365.251C225.746 360.515 225.973 360.239 226.597 354.999L227.146 350.385L229.826 350.236C235.689 349.912 243.095 342.302 242.042 337.683C241.432 335.01 236.877 332.048 233.739 332.284C230.827 332.503 227.087 334.928 226.23 337.15ZM181.126 384.279C181.691 385.606 181.979 385.766 182.092 384.816C182.181 384.072 181.818 383.223 181.287 382.927C180.735 382.62 180.667 383.2 181.126 384.279ZM241.133 326.87C239.905 329.194 240.549 333.233 242.532 335.65C243.035 336.263 245.299 336.549 247.562 336.286C251.005 335.887 252.051 335.355 253.957 333.037C255.211 331.512 256.664 328.504 257.186 326.35C258.013 322.947 257.846 322.079 255.91 319.721C253.959 317.343 253.389 317.147 251.297 318.128C247.615 319.855 242.527 324.23 241.133 326.87ZM193.313 376.874C192.951 379.918 193.307 381.148 195.223 383.484C198.014 386.886 197.242 388.268 192.896 387.646C189.107 387.102 184.795 389.447 180.185 394.559C176.021 399.176 175.122 402.141 176.848 405.572C177.89 407.643 177.756 408.017 175.009 410.705C173.38 412.3 171.656 414.337 171.179 415.231C170.415 416.663 170.317 416.624 170.358 414.905C170.439 411.576 168.874 414.086 167.742 419.102L166.716 423.648L171.417 423.444C174.003 423.332 177.269 423.628 178.675 424.102C180.192 424.613 181.763 424.443 182.538 423.684C183.258 422.979 184.529 418.892 185.364 414.6C187.032 406.02 188.373 404.333 193.84 403.943C196.509 403.753 196.522 403.741 194.745 403.146C192.261 402.315 192.632 400.237 195.823 397.113C197.773 395.205 198.532 393.565 199.126 389.98L199.898 385.325L204.665 381.709C211.45 376.564 211.778 376.159 211.563 373.232C211.3 369.648 207.666 366.892 203.33 366.987C200.594 367.046 199.384 367.628 196.861 370.096C194.321 372.583 193.678 373.812 193.313 376.874ZM172.336 396.461C171.729 397.652 171.472 398.62 171.765 398.613C172.39 398.6 176.284 392.636 175.941 392.218C175.556 391.748 173.514 394.152 172.336 396.461ZM258.797 317.013C257.943 320.037 260.987 324.261 263.975 324.196C268.98 324.086 272.621 320.774 273.214 315.79C273.743 311.345 271.341 307.669 268.068 307.915C265.393 308.116 259.745 313.659 258.797 317.013ZM169.729 405.346C169.687 407.066 169.786 407.105 170.55 405.673C171.027 404.779 171.914 403.553 172.522 402.949C173.476 401.999 173.423 401.901 172.128 402.222C170.067 402.732 169.784 403.101 169.729 405.346ZM310.388 290.167C314.712 292.981 317.399 296.79 319.54 303.138C320.723 306.644 321.663 309.976 321.63 310.543C321.574 311.532 314.481 315.884 311.125 316.988C310.236 317.282 308.131 318.538 306.445 319.781C303.802 321.731 302.9 321.873 299.882 320.814C295.882 319.411 287.337 318.437 287.227 319.372C287.185 319.717 288.306 320.016 289.717 320.04C292.791 320.091 299.615 322.505 299.497 323.499C299.451 323.887 295.614 326.374 290.97 329.026C286.328 331.678 280.051 335.444 277.022 337.394C271.041 341.244 252.275 357.6 251.789 359.386C251.624 359.992 249.546 362.733 247.17 365.478C240.361 373.346 237.398 378.301 229.938 394.293C226.104 402.513 222.33 410.441 221.552 411.91C220.774 413.379 219.518 417.348 218.762 420.729C217.412 426.76 216.967 427.766 214.966 429.304C214.418 429.725 214.33 430.156 214.771 430.262C216.635 430.713 214.668 440.064 212.455 441.274C211.349 441.878 211.205 442.277 211.957 442.645C212.54 442.931 212.842 444.231 212.628 445.534C212.254 447.801 211.963 448.054 205.937 451.362C202.472 453.264 199.671 454.362 199.712 453.802C199.754 453.242 199.58 453.354 199.325 454.051C199.07 454.747 198.66 455.071 198.412 454.769C198.165 454.469 196.435 454.831 194.566 455.577L191.17 456.932L194.624 456.746C196.524 456.644 200.644 456.074 203.78 455.479L209.482 454.397L206.501 458.063C201.417 464.319 196.325 469.042 192.118 471.407C186.945 474.314 186.823 474.464 190.287 473.639C191.869 473.263 196.679 470.947 200.976 468.493C208.263 464.332 208.675 464.205 207.105 466.604C206.179 468.018 205.647 469.448 205.923 469.784C206.687 470.716 199.696 477.184 195.757 479.187C193.832 480.166 192.426 481.173 192.632 481.424C192.839 481.676 195.924 480.456 199.489 478.713C204.859 476.088 205.96 475.828 205.914 477.201C205.877 478.313 204.463 480.223 201.608 483.018C198.317 486.24 197.526 487.388 198.11 488.1C198.626 488.729 200.021 488.121 202.538 486.171C204.559 484.605 206.352 483.503 206.524 483.721C206.695 483.94 206.312 485.781 205.672 487.811C204.513 491.491 204.817 493.442 206.32 491.971C206.755 491.545 206.954 492.777 206.763 494.709C206.436 497.997 206.709 498.576 211.045 503.8C215.559 509.237 215.673 509.312 215.562 506.741C215.499 505.29 216.391 496.023 217.545 486.147C219.571 468.802 219.702 468.248 221.376 469.885C224.004 472.455 231.162 477.567 236.135 480.423C253.143 490.193 277.209 491.158 296.883 482.856C306.623 478.747 312.634 474.301 325.508 461.687C335.902 451.503 337.758 449.362 342.586 442.005C352.03 427.607 359.112 410.724 361.384 397.197C364.949 375.966 357.131 345.229 345.35 334.152C341.486 330.52 335.29 326.263 331.648 324.736C326.793 322.702 326.474 322.351 328.062 320.8C328.876 320.005 335.412 316.946 342.584 314.003C349.756 311.06 356.126 308.438 356.738 308.178C357.57 307.824 356.931 306.582 354.214 303.27C350.065 298.213 350.585 298.219 341.461 303.111C333.461 307.4 332.82 307.43 333.137 303.501C333.485 299.175 335.821 278.099 333.734 280.142C334.115 274.19 328.501 288.966 328.245 298.275C328.074 304.512 327.498 308.845 326.774 309.333C325.339 310.3 325.183 310.049 321.211 300.372C318.158 292.932 317.958 292.646 314.311 290.491C310.279 288.109 306.784 287.819 310.388 290.167ZM242.711 360.14C243.269 360.274 244.601 360.089 245.67 359.729C247.064 359.26 247.328 359.005 246.602 358.83C246.044 358.695 244.712 358.88 243.643 359.24C242.249 359.709 241.985 359.965 242.711 360.14ZM266.484 356.784C272.042 352.418 273.695 352.075 276.7 354.664C278.757 356.435 280.203 356.788 283.523 356.33C285.839 356.012 287.694 355.339 287.643 354.836C287.594 354.331 285.91 354.19 283.9 354.522C279.578 355.234 275.54 352.751 275.913 349.613C276.115 347.917 276.757 347.311 281.587 344.253C284.582 342.356 288.336 340.54 289.929 340.217C292.108 339.775 292.904 339.243 293.144 338.065C293.553 336.065 296.785 335.838 298.314 337.701C299.226 338.814 299.421 338.732 299.756 337.093C300.088 335.464 300.554 335.225 303.099 335.378C304.876 335.486 306.733 334.893 307.754 333.893C310.226 331.474 310.709 332.875 309.68 339.467C309.177 342.683 309.163 344.93 309.649 344.461C310.854 343.298 312.198 339.894 312.719 336.686C313.181 333.848 315.15 332.57 315.779 334.701C316.033 335.566 316.487 335.553 317.17 334.666C317.728 333.941 318.724 333.207 319.384 333.035C321.041 332.6 321.934 336.697 320.655 338.861C318.707 342.155 321.427 341.423 325.144 337.653C327.182 335.586 329.007 334.085 329.199 334.319C329.391 334.552 329.161 336.25 328.688 338.092C327.595 342.351 328.129 342.938 331.75 341.457C334.646 340.274 334.634 340.297 330.54 343.646C327.724 345.949 326.587 347.253 326.977 347.729C327.293 348.113 328.465 347.533 329.585 346.437C330.702 345.343 332.798 344.032 334.242 343.524C336.665 342.67 337.176 342.92 340.98 346.818C343.243 349.139 345.053 351.493 345 352.051C344.949 352.608 342.993 354.089 340.658 355.341C335.027 358.359 333.946 360.417 339.406 357.724C344.994 354.967 346.839 355.108 347.075 358.311C347.171 359.634 347.515 361.038 347.838 361.432C348.161 361.825 348.362 363.72 348.286 365.641C348.21 367.563 348.506 369.572 348.945 370.106C349.557 370.853 349.202 371.446 347.407 372.676L345.073 374.276L347.521 374.648C348.869 374.852 350.353 374.661 350.821 374.224C351.288 373.786 352.01 373.842 352.426 374.349C352.862 374.88 352.669 375.513 351.972 375.845C351.308 376.163 350.812 376.917 350.873 377.523C350.932 378.128 350.378 379.215 349.64 379.937C348.442 381.11 348.604 381.573 351.161 384.268C353.843 387.094 353.939 387.433 352.696 389.623C351.632 391.497 350.737 392.076 348.188 392.536C343.239 393.429 344.25 394.883 349.58 394.538L354.36 394.229L353.413 398.135C352.629 401.37 352.085 402.224 350.252 403.105C347.706 404.329 348.115 405.503 351.226 405.908C353.875 406.252 354.175 408.28 351.906 410.502C350.464 411.914 350.221 412.687 350.944 413.568C351.528 414.28 351.382 415.806 350.575 417.429C349.462 419.668 348.851 420.194 346.898 420.6C343.785 421.248 341.956 423.126 343.092 424.511C343.589 425.117 343.672 426.596 343.273 427.798C342.654 429.675 342.29 429.95 340.691 429.751C339.07 429.548 338.845 429.724 338.933 431.114C338.989 431.991 339.469 433.246 339.998 433.905C340.858 434.973 340.545 435.438 337.011 438.325C334.839 440.099 333.096 441.901 333.139 442.331C333.182 442.761 332.038 444.178 330.598 445.481C327.353 448.42 326.887 450.181 328.753 452.455C329.55 453.428 330.062 454.642 329.89 455.153C329.543 456.191 327.63 455.483 326.257 453.809C325.191 452.51 320.214 452.83 318.719 454.294C318.137 454.864 317.063 454.932 316.332 454.448C315.52 453.91 314.737 454.069 314.325 454.855C313.931 455.605 313.461 455.737 313.2 455.172C312.953 454.637 312.271 454.437 311.684 454.728C311.096 455.019 310.98 455.703 311.428 456.249C312.494 457.548 310.715 459.255 308.865 458.709C307.773 458.387 307.254 458.723 306.739 460.088C306.206 461.499 305.469 461.881 303.363 461.839C301.882 461.811 300.194 462.254 299.613 462.823C299.032 463.392 297.836 463.672 296.956 463.445C295.45 463.056 295.357 463.161 295.354 465.228C295.353 466.436 295.076 467.088 294.74 466.678C294.403 466.268 293.668 466.381 293.107 466.931C292.545 467.481 291.559 467.673 290.916 467.358C290.274 467.045 289.438 467.16 289.059 467.614C285.48 471.921 284.386 470.644 285.142 463.039C285.866 455.749 284.983 454.255 283.592 460.417C283.022 462.946 282.76 465.264 283.01 465.569C283.26 465.873 282.98 467.321 282.387 468.785C281.391 471.241 281.169 471.398 279.478 470.819C278.472 470.476 277.173 470.73 276.591 471.384C275.184 472.971 274.547 472.017 274.405 468.108C274.264 464.22 273.171 463.848 272.732 467.538C272.401 470.312 270.294 472.048 269.069 470.556C268.323 469.647 267.535 470.093 265.166 472.759C263.371 474.779 262.948 474.202 262.67 469.35C262.352 463.782 261.584 463.257 258.236 466.316C254.709 469.536 254.078 469.564 254.303 466.487C254.476 464.123 254.441 464.083 253.195 465.267C250.113 468.198 246.915 467.076 244.306 462.147C243.786 461.162 242.836 460.953 241.479 461.524C238.083 462.95 237.302 460.081 240.112 456.509C241.407 454.863 241.791 454.106 240.967 454.824C240.142 455.543 238.313 456.281 236.903 456.465C234.639 456.759 234.431 456.62 235.128 455.28C235.774 454.038 235.396 453.279 233.053 451.108C230.373 448.626 230.279 448.34 231.601 446.69C232.828 445.158 232.734 444.579 230.876 442.269C229.701 440.805 228.776 439.296 228.821 438.913C228.954 437.803 231.768 434.942 233.989 433.662C235.987 432.51 235.973 432.5 233.279 433.162C229.36 434.124 228.56 432.425 230.449 427.149C231.523 424.149 231.738 422.127 231.069 421.312C229.707 419.652 230.951 417.493 233.953 416.309C237.115 415.061 241.616 412.172 241.157 411.684C240.96 411.475 238.956 411.699 236.702 412.181C232.534 413.074 231.336 412.091 233.73 409.747C234.46 409.033 235.831 406.68 236.776 404.518C239.126 399.151 243.987 393.219 245.716 393.614C246.789 393.858 246.898 393.759 246.332 393.05C245.93 392.547 246.183 391.933 246.941 391.572C248.744 390.712 247.869 389.962 244.652 389.61C241.114 389.223 240.826 387.331 244.181 386.524C246.481 385.97 246.579 385.865 245.572 385.058C243.063 383.044 246.031 382.197 250.772 383.573C253.584 384.39 255.729 384.612 255.541 384.066C255.352 383.521 253.352 382.529 251.097 381.862C248.841 381.196 246.937 380.578 246.865 380.491C246.564 380.124 249.502 375.233 251.559 372.678C253.173 370.673 254.155 370.024 255.137 370.314C257.015 370.868 257.671 370.256 257.382 368.224C257.246 367.27 257.851 365.786 258.729 364.927C259.606 364.069 260.275 362.885 260.216 362.294C260.158 361.705 260.721 360.869 261.469 360.438C262.217 360.007 264.474 358.363 266.484 356.784ZM292.891 347.827C293.2 350.351 293.129 352.731 292.733 353.12C292.283 353.56 292.647 353.875 293.704 353.96C295.183 354.077 295.268 353.408 294.388 348.655C293.164 342.044 292.111 341.461 292.891 347.827ZM298.322 343.977C298.068 347.458 299.508 348.692 299.908 345.334C300.086 343.843 299.839 342.406 299.361 342.14C298.793 341.825 298.433 342.461 298.322 343.977ZM264.152 385.078C263.266 386.618 262.458 388.567 262.358 389.411C262.257 390.255 261.761 391.351 261.256 391.846C259.514 393.551 257.729 406.992 258.509 412.533C258.938 415.582 259.286 418.792 259.283 419.668C259.28 420.543 259.717 421.896 260.254 422.674C260.791 423.452 262.341 426.178 263.697 428.731C265.054 431.286 266.838 433.862 267.664 434.457C268.49 435.053 270.058 436.192 271.148 436.99C272.238 437.787 274.237 438.57 275.592 438.727C276.945 438.885 278.259 439.266 278.512 439.574C278.766 439.883 281.394 440.394 284.354 440.71C288.324 441.133 291.608 440.625 296.878 438.772C303.961 436.283 304.083 436.201 311.136 429.18C317.24 423.103 318.524 421.445 320.19 417.49C324.248 407.852 324.571 397.799 321.091 389.529C318.815 384.118 313.132 377.202 308.433 374.124C303.962 371.196 295.503 369.516 289.696 370.404C287.339 370.765 284.721 371.091 283.879 371.129C283.037 371.167 281.944 371.594 281.45 372.077C280.957 372.56 280.229 372.778 279.83 372.563C279.435 372.347 276.779 374.11 273.93 376.481C271.081 378.853 268.567 380.568 268.343 380.294C267.823 379.661 266.214 381.499 264.152 385.078ZM295.832 356.346C295.743 357.799 295.902 357.93 296.751 357.099C297.314 356.548 297.43 355.672 297.005 355.155C296.067 354.011 295.969 354.112 295.832 356.346ZM199.116 460.022C204.672 458.154 205.826 457.044 200.796 458.407C198.632 458.994 196.415 459.918 195.869 460.461C195.323 461.004 196.784 460.807 199.116 460.022ZM294.539 382.338C294.74 383.017 296.015 383.949 297.374 384.407C299.625 385.165 299.85 385.485 299.875 387.98C299.91 391.487 299.017 391.452 295.509 387.812C293.297 385.516 292.81 384.49 293.294 383.145C294.104 380.898 294.113 380.893 294.539 382.338ZM263.243 435.891C263.873 435.601 264.429 435.016 264.48 434.591C264.53 434.166 264.016 434.403 263.335 435.118C262.583 435.908 262.547 436.212 263.243 435.891ZM271.37 441.859C271.427 442.426 271.791 442.578 272.179 442.198C272.567 441.818 272.653 441.225 272.37 440.88C272.087 440.535 271.724 440.382 271.562 440.541C271.4 440.699 271.314 441.292 271.37 441.859ZM382.139 343.345L381.82 346.794L385.276 347.058C389.811 347.406 390.394 346.698 386.442 345.645C383.207 344.782 382.354 343.392 384.044 341.737C384.572 341.22 384.657 340.374 384.233 339.857C383.097 338.472 382.497 339.474 382.139 343.345ZM380.543 351.663C380.53 353.469 380.572 353.468 380.99 351.654C381.428 349.747 381.359 348.887 380.81 349.425C380.672 349.56 380.551 350.568 380.543 351.663ZM380.238 355.796C380.439 356.445 382.101 356.757 383.934 356.49C386.283 356.15 386.652 355.955 385.185 355.831C384.042 355.734 382.379 355.421 381.49 355.136C380.276 354.746 379.963 354.912 380.238 355.796ZM223.269 518.764C224.692 520.498 225.974 520.653 232.283 519.86C241.045 518.758 251.275 515.796 249.431 514.894C248.757 514.565 245.809 514.767 242.88 515.344C239.95 515.921 233.966 516.471 229.582 516.568L221.61 516.741L223.269 518.764ZM342.565 400.427C342.848 400.772 343.399 400.743 343.787 400.363C344.175 399.983 344.075 399.571 343.566 399.448C343.056 399.325 342.508 399.353 342.346 399.512C342.184 399.671 342.283 400.082 342.565 400.427ZM292.237 452.56C291.808 454.303 291.997 454.747 293.158 454.722C294.32 454.696 294.593 454.371 294.483 453.14C294.357 451.739 293.3 449.73 292.928 450.185C292.844 450.285 292.534 451.354 292.237 452.56ZM380.704 365.1C379.823 366.175 379.27 367.623 379.475 368.319C379.758 369.28 380.445 369.002 382.334 367.166C383.954 365.591 387.217 363.962 391.687 362.494C398.253 360.339 400.654 358.408 394.947 359.874C393.446 360.259 390.933 360.659 389.363 360.761C385.867 360.987 382.823 362.513 380.704 365.1ZM394.346 354.827C395.208 355.848 395.642 356.049 395.312 355.273C394.98 354.497 394.274 353.663 393.744 353.416C393.213 353.171 393.484 353.806 394.346 354.827ZM300.941 445.543C301.012 446.262 301.39 446.843 301.78 446.834C302.837 446.811 302.811 445.349 301.742 444.756C300.994 444.339 300.836 444.493 300.941 445.543ZM342.29 405.219C342.346 405.786 342.693 405.956 343.059 405.597C343.426 405.238 343.68 404.48 343.623 403.914C343.567 403.347 343.221 403.177 342.854 403.537C342.488 403.895 342.234 404.652 342.29 405.219ZM380.875 373.212C380.936 373.834 379.647 377.414 378.012 381.167C374.226 389.858 373.024 393.536 372.123 399.192C371.701 401.833 369.885 406.524 367.796 410.37C365.6 414.409 364.002 418.604 363.703 421.118C362.937 427.554 356.1 441.216 345.503 457.486C342.908 461.472 342.876 461.749 344.201 468.982C345.691 477.114 349.746 484.506 352.851 484.754C355.43 484.961 355.747 483.891 353.811 481.53C350.88 477.958 347.228 461.43 348.988 459.707C349.906 458.809 352.774 465.073 353.989 470.638C354.605 473.454 355.65 476.424 356.31 477.236C356.969 478.048 357.666 480.023 357.857 481.622C358.046 483.222 358.582 484.523 359.046 484.513C360.531 484.481 360.265 481.865 358.473 478.851C357.277 476.839 357.028 475.428 357.675 474.331C358.194 473.455 358.211 472.241 357.714 471.635C357.216 471.028 355.902 467.78 354.796 464.415C353.687 461.05 352.328 457.745 351.774 457.069C351.219 456.393 350.945 455.305 351.164 454.65C351.455 453.781 352.443 454.729 354.819 458.157C356.648 460.797 359.779 464.119 361.967 465.74L365.862 468.626L362.423 464.311C358.052 458.827 354.42 450.6 354.968 447.419C355.385 444.992 355.407 444.994 356.764 447.574C360.377 454.439 369.448 469.072 369.847 468.681C370.685 467.861 369.413 465.2 365.063 458.671C361.153 452.804 358.318 446.077 358.51 443.133C358.551 442.524 361.546 445.779 365.166 450.365C371.569 458.477 371.89 458.756 376.873 460.555L381.996 462.402L386.504 458.009C388.986 455.591 390.822 453.38 390.588 453.095C390.354 452.81 388.958 452.644 387.485 452.726C383.756 452.932 378.205 450.766 374.74 447.755C372.219 445.562 371.781 444.658 371.538 441.125C371.251 436.98 368.858 430.041 366.414 426.267C365.594 424.998 365.44 423.702 366.019 422.918C367.307 421.171 370.556 423.649 372.171 427.614C373.694 431.352 375.53 433.726 376.308 432.964C376.624 432.654 376.221 430.164 375.413 427.431C374.23 423.436 373.269 421.83 370.503 419.237C366.553 415.532 366.889 414.021 371.333 415.507C373.114 416.105 373.983 416.02 373.728 415.273C373.501 414.609 375.299 414.804 377.887 415.724C388.357 419.451 391.981 420.385 391.377 419.209C391.033 418.539 386.85 416.533 382.081 414.755C373.906 411.705 373.398 411.378 373.227 409.051C373.127 407.693 372.524 406.329 371.888 406.017C369.193 404.7 373.122 404.417 377.166 405.635C381.546 406.954 382.117 406.312 378.256 404.407C377.114 403.844 376.215 403.092 376.258 402.735C376.358 401.897 384.976 405.263 386.057 406.563C387.063 407.771 402.264 414.061 404.085 414.021C406.463 413.968 404.478 412.687 396.796 409.315C383.991 403.694 373.852 398.661 373.753 397.876C373.52 396.035 376.472 394.71 380.142 395.015C385.886 395.488 398.117 399.868 402.166 402.902C406.841 406.403 409.395 409.732 409.417 412.356C409.432 413.907 410.812 416.205 414.226 420.367L419.015 426.203L429.015 416.413L453.319 392.622L434.235 400.847C429.488 395.109 433.331 397.008 433.236 399.629C433.185 401.08 430.039 401.752 430.983 403.469C431.007 400.004 430.34 393.549 424.905 391.518C421.744 390.336 422.07 392.209 419.923 392.78C418.1 393.266 416.138 396.562 414.744 396.946C412.318 397.614 411.647 409.418 407.07 403.902C402.39 398.259 402.115 398.077 394.12 395.319C389.628 393.769 383.822 392.074 381.218 391.552C378.278 390.962 376.539 390.148 376.627 389.404C376.889 387.197 383.349 385.569 388.928 386.305C391.921 386.7 394.501 386.892 394.664 386.733C395.52 385.895 385.508 383.741 382.166 384.046C378.512 384.381 378.301 384.277 378.795 382.383C379.086 381.273 380.518 378.852 381.978 377.003C384.357 373.989 385.478 373.339 392.842 370.694C397.358 369.074 400.745 367.672 400.369 367.582C399.596 367.395 381.528 371.331 381.062 371.787C380.897 371.949 380.812 372.591 380.875 373.212ZM344.173 414.238C344.118 415.833 344.403 416.063 346.049 415.756C348.498 415.3 348.934 414.049 347.327 412.092C345.885 410.334 344.266 411.434 344.173 414.238ZM323.824 439.123C324.107 439.467 324.656 439.438 325.044 439.058C325.432 438.678 325.334 438.267 324.824 438.144C324.315 438.021 323.765 438.049 323.603 438.207C323.441 438.366 323.541 438.778 323.824 439.123ZM334.431 428.606C334.714 428.951 335.387 429.114 335.929 428.968C336.471 428.821 336.682 428.421 336.399 428.076C336.116 427.731 335.442 427.567 334.901 427.714C334.358 427.86 334.148 428.261 334.431 428.606ZM394.143 384.167C394.24 384.286 395.939 384.295 397.919 384.185C400.918 384.016 401.196 383.875 399.603 383.339C398 382.8 393.572 383.471 394.143 384.167ZM396.952 389.035C397.713 389.984 404.641 391.663 405.266 391.05C405.596 390.727 400.267 388.84 397.636 388.345C396.346 388.104 396.27 388.183 396.952 389.035ZM276.965 512.797C276.757 514.538 277.698 514.798 279.129 513.396C281.369 511.204 292.824 505.698 305.326 500.808C309.704 499.095 310.711 498.402 311.265 496.73C311.871 494.899 325.896 480.342 327.08 480.317C327.326 480.311 327.365 482.369 327.168 484.888C326.732 490.419 328.001 494.908 332.139 502.484L335.258 508.192L339.076 504.455L342.894 500.717L341.329 497.846C338.511 492.674 337.339 484.346 338.565 478.176C339.195 475.002 339.535 470.999 339.321 469.281L338.931 466.16L331.631 473.306C316.525 488.093 299.892 500.439 286.305 506.947C278.792 510.545 277.106 511.601 276.965 512.797ZM368.354 438.742C368.984 443.824 367.886 444.474 364.876 440.806C362.679 438.127 362.312 437.008 362.681 434.1L363.123 430.609L365.544 433.106C367.134 434.746 368.099 436.68 368.354 438.742ZM376.262 421.704C379.359 424.051 388.337 427.943 389.06 427.252C389.856 426.489 387.587 424.989 381.485 422.244C375.302 419.463 372.984 419.222 376.262 421.704ZM336.505 480.907C336.674 481.952 336.63 483.343 336.411 484.001C336.142 484.802 335.95 484.732 335.828 483.787C335.346 480.057 335.952 477.479 336.505 480.907ZM362.207 473.418C365.386 475.737 366.025 475.987 366.344 475.035C366.773 473.752 363.756 471.585 361.859 471.815C360.513 471.978 360.566 472.221 362.207 473.418Z" fill="black" stroke="#4D4D4D" stroke-width="2" mask="url(#path-2-inside-1_312_1967)"/>
<path fill-rule="evenodd" clip-rule="evenodd" d="M536.815 151.937C533.212 153.679 527.95 156.272 525.121 157.699C520.48 160.039 518.444 160.384 504.277 161.236C467.871 163.427 452.726 165.06 446.341 167.482C438.395 170.497 426.535 177.797 420.736 183.242C412.284 191.179 393.326 211.119 384.568 221.282C379.803 226.812 370.846 236.773 364.664 243.418C352.606 256.377 349.864 260.173 350.005 263.709C350.093 265.947 344.762 273.398 342.964 273.55C342.447 273.593 341.067 271.694 339.899 269.329C337.885 265.252 337.486 264.994 332.205 264.36C318.915 262.765 308.955 262.797 296.144 264.475C267.292 268.253 238.291 278.649 214.449 293.759C193.148 307.258 178.232 321.809 151.702 354.974C127.676 385.007 121.317 390.893 100.818 402.062C85.638 410.334 72.15 414.905 58.9358 416.255C52.666 416.896 47.0509 417.522 46.4568 417.647C45.8013 417.785 45.3372 420.803 45.2736 425.335C45.1934 431.036 44.2983 435.526 41.4847 444.361C37.0772 458.198 35.413 460.514 28.7971 462.026C22.7938 463.399 20.3765 466.158 20.5843 471.4C20.7802 476.342 21.1635 476.795 53.6007 510.401C86.2856 544.264 99.7177 557.243 124.169 578.589C134.301 587.435 165.309 616.466 193.076 643.105C220.843 669.744 254.493 701.717 267.853 714.159C281.372 726.746 295.001 740.41 298.584 744.964C308.885 758.058 330.831 778.049 332.569 775.921C332.766 775.68 332.513 773.542 332.008 771.168C330.967 766.276 330.386 767.015 343.773 756.196C347.586 753.114 354.022 747.654 358.077 744.061C362.131 740.467 376.265 728.879 389.486 718.307C404.083 706.637 424.905 688.551 442.505 672.259C489.857 628.424 524.807 598.115 589.584 544.713C609.904 527.961 635.482 507.3 646.424 498.8C663.593 485.462 696.511 458.728 712.957 444.762C735.9 425.281 744.954 418.051 748.858 416.091C753.895 413.563 762.989 407.025 805.122 375.635C820.918 363.868 838.448 351.304 844.076 347.716C857.071 339.431 859.039 337.677 859.582 333.902C860.233 329.377 875.374 317.069 880.923 316.554C884.439 316.228 884.629 316.078 882.988 314.914C881.744 314.031 881.354 312.94 881.736 311.405C882.773 307.233 880.594 306.336 871.321 307.118C863.103 307.811 862.476 307.697 855.647 304.292C848.955 300.953 839.049 297.88 838.222 298.885C838.016 299.135 842.109 301.165 847.317 303.396C852.526 305.626 858.279 308.106 860.103 308.903C864.348 310.761 865.941 313.115 864.665 315.645C864.145 316.678 859.529 320.418 854.409 323.954C847 329.072 844.575 331.354 842.525 335.135C839.429 340.849 832.323 346.412 818.8 353.71C799.773 363.979 789.87 370.588 776.048 382.238C768.31 388.762 755.704 398.242 748.036 403.304C728.739 416.044 711.836 428.16 671.983 457.82C619.515 496.87 616.583 499.128 585.443 524.466C569.434 537.492 548.834 553.782 539.664 560.666C530.494 567.549 519.671 576.052 515.613 579.559C500.121 592.948 454.266 634.731 416.803 669.596C408.878 676.971 392.629 691.132 380.695 701.063C352.398 724.613 344.782 731.671 336.508 742.019C328.618 751.886 327.055 752.485 320.467 748.156C313.716 743.718 252.342 685.09 250.056 680.895C248.769 678.533 246.947 676.834 245.147 676.316C243.54 675.855 240.964 673.656 239.283 671.309C237.545 668.883 234.133 666.007 231.167 664.466C228.352 663.003 223.857 659.374 221.176 656.4C215.928 650.579 214.374 650.802 215.606 657.198C216.131 659.924 215.981 660.627 214.931 660.347C212.805 659.78 208.955 652.633 208.943 649.231C208.936 647.535 208.863 645.529 208.779 644.772C208.697 644.015 202.802 637.746 195.679 630.84C187.883 623.278 182.394 617.137 181.887 615.404C181.399 613.739 179.629 611.691 177.692 610.551C170.598 606.376 168.942 604.722 168.822 601.692C168.699 598.582 166.479 596.792 163.101 597.077C161.175 597.239 159.327 595.438 144.555 579.015C139.616 573.524 133.436 567.449 130.824 565.515C128.21 563.581 125.4 560.477 124.577 558.617C123.752 556.748 121.451 554.278 119.433 553.094C115.768 550.945 109.434 544.82 95.2139 529.672C91.0074 525.192 86.1928 521.037 84.5143 520.44C82.4071 519.69 80.7644 517.951 79.2058 514.822C77.6409 511.678 76.2821 510.244 74.7662 510.141C73.5659 510.058 69.8234 507.589 66.4517 504.655C63.08 501.721 57.7737 497.311 54.6594 494.855C51.4121 492.293 48.9649 489.558 48.9207 488.441C48.87 487.163 46.4996 485.067 42.0261 482.345C35.4384 478.336 33.2468 478.03 33.3698 481.134C33.402 481.946 33.05 482.642 32.588 482.681C31.6031 482.764 24.2357 475.157 24.7253 474.563C24.9082 474.341 26.6414 473.91 28.577 473.605C32.708 472.955 32.9336 472.197 29.5972 470.179C25.227 467.536 26.4606 466.102 35.3801 463.462C45.527 460.457 46.7376 459.693 44.8355 457.497C43.6699 456.152 43.6966 455.068 45.0165 450.154C47.2507 441.838 48.2728 441.947 47.8355 450.453C47.5906 455.225 47.7978 457.758 48.4291 457.704C49.5575 457.609 49.9172 455.855 51.0755 444.797C51.5923 439.86 52.4286 436.414 53.2048 436.022C55.3535 434.934 60.2275 437.291 62.9741 440.746C64.4067 442.549 70.5017 448.086 76.5188 453.052C82.5359 458.018 118.891 491.631 157.307 527.748C243.863 609.125 254.517 618.679 288.895 645.732C296.778 651.935 304.404 658.491 305.843 660.302C310.236 665.828 310.91 669.979 311.116 692.758C311.3 713.244 310.889 717.211 308.561 717.407C307.916 717.462 299.112 708.842 288.997 698.254C278.883 687.664 252.498 661.789 230.363 640.755C187.22 599.751 85.8759 502.238 69.0108 485.5C63.3781 479.909 57.896 474.914 56.8283 474.401C54.9691 473.505 54.9512 473.582 56.3879 476.236C62.8191 488.112 80.1385 506.348 136.67 560.765C163.672 586.758 190.458 612.722 196.194 618.464C201.93 624.205 227.548 649.234 253.124 674.084C290.849 710.741 301.353 720.385 308.781 725.198C313.817 728.459 318.234 731.589 318.598 732.154C318.961 732.717 318.104 734.307 316.693 735.685C313.478 738.826 314.938 739.934 320.368 738.477C323.017 737.766 324.981 736.396 326.515 734.191C329.678 729.642 351.772 709.56 384.221 681.739C399.442 668.689 422.667 648.24 435.834 636.297C461.991 612.569 474.246 601.697 488.355 589.708C493.43 585.396 504.969 575.486 513.997 567.687L530.413 553.508L532.762 555.605C535.664 558.194 537.142 557.216 536.968 552.823C536.792 548.39 539.101 545.933 548.876 540.152C554.337 536.921 560.379 531.964 568.275 524.232C582.977 509.836 584.936 508.433 592.093 507.172C602.877 505.273 614.28 496.128 619.584 485.126C622.545 478.985 626.546 474.893 637.288 467.018C642.262 463.372 655.494 453.291 666.691 444.615C677.888 435.94 698.516 420.336 712.531 409.941C769.491 367.691 846.55 309.856 847.688 308.502C847.897 308.254 847.819 307.814 847.514 307.524C847.21 307.233 841.647 310.51 835.153 314.806C828.659 319.102 823.105 322.387 822.81 322.107C822.196 321.521 824.485 319.867 835.541 312.906C840.601 309.72 843.54 307.232 843.702 305.997C844.108 302.903 842.488 302.175 838.282 303.562C836.179 304.255 833.93 304.521 833.281 304.154C831.419 303.098 832.912 299.065 835.284 298.745C836.851 298.534 836.576 298.265 834.158 297.644C832.117 297.119 828.395 294.103 823.858 289.298L816.754 281.775L812.28 282.821C808.313 283.749 807.112 283.516 801.661 280.765C798.281 279.059 789.021 275.155 781.083 272.091C773.145 269.026 760.916 263.722 753.909 260.305C746.901 256.887 732.857 250.171 722.699 245.379C682.243 226.295 672.187 220.762 622.753 190.383C605.277 179.644 584.054 166.888 575.589 162.036C567.124 157.184 559.939 152.812 559.622 152.32C559.305 151.827 559.544 150.698 560.153 149.81C561.826 147.372 560.518 146.939 556.836 148.711C554.264 149.95 552.981 150.078 551.02 149.296C547.305 147.815 544.114 148.408 536.815 151.937ZM542.804 158.653C536.193 164.931 524.906 169.21 515.967 168.825C508.713 168.512 509.568 167.512 517.706 166.788C523.793 166.247 526.349 165.423 533.388 161.734C542.719 156.844 545.755 155.85 542.804 158.653ZM566.847 163.635C571.647 165.618 576.188 167.957 576.937 168.832C578.341 170.472 559.043 162.94 555.359 160.41C553.344 159.026 553.349 159.012 555.715 159.516C557.038 159.797 562.047 161.651 566.847 163.635ZM554.541 162.105C556.759 162.987 564.434 167.107 571.596 171.262C578.758 175.416 592.083 183.062 601.207 188.253C610.331 193.443 625.484 202.137 634.88 207.572C659.693 221.925 675.05 229.486 703.795 241.506C717.846 247.382 737.438 256.203 747.331 261.108C767.38 271.049 791.603 281.56 800.787 284.304C804.105 285.296 806.834 286.487 806.853 286.952C806.953 289.477 788.274 300.028 772.711 306.236C764.04 309.696 760.727 310.493 751.071 311.444C740.095 312.523 739.477 312.468 734.497 309.974C730.611 308.028 729.417 306.914 729.7 305.496C730.007 303.952 729.491 303.659 726.865 303.88C724.336 304.093 722.032 302.908 716.002 298.288C708.579 292.601 704.894 290.315 703.358 290.444C701.766 290.578 713.948 301.434 723.158 308.091L732.855 315.099L729.696 316.62C727.959 317.457 724.764 318.326 722.597 318.552C719.088 318.918 717.812 318.295 710.926 312.86C701.778 305.641 695.598 302.11 693.295 302.787C691.678 303.264 694.623 305.935 706.875 315.101C710.046 317.474 710.182 317.781 708.689 319.178C707.799 320.009 705.057 321.16 702.594 321.734C698.02 322.802 696.12 322.248 686.254 316.974C681.647 314.51 681.261 316.458 685.532 320.628C687.592 322.64 688.901 324.577 688.441 324.932C687.981 325.286 683.257 326.428 677.944 327.468C647.212 333.484 612.465 350.655 591.255 370.307C586.195 374.995 581.192 379.151 580.138 379.543C575.926 381.109 565.197 374.654 565.031 370.455C564.961 368.69 564.407 367.944 563.24 368.042C562.31 368.121 560.57 367.547 559.372 366.767C556.205 364.705 554.908 366.304 557.342 369.27C558.543 370.737 559.064 372.232 558.621 372.945C558.211 373.607 556.824 376.389 555.538 379.127C553.375 383.735 553.34 384.055 555.067 383.416C556.093 383.035 556.899 381.89 556.859 380.87C556.792 379.189 560.71 374.423 562.264 374.292C563.764 374.165 576.084 384.623 576.142 386.072C576.176 386.948 574.976 389.156 573.475 390.979C571.741 393.083 570.786 395.34 570.858 397.161C570.988 400.434 568.944 403.024 566.783 402.324C564.903 401.715 564.839 399.284 566.54 392.97C567.842 388.136 567.821 387.825 566.108 386.656C563.317 384.751 561.522 385.233 562.813 387.54C564.361 390.306 564.367 396.279 562.824 397.845C559.736 400.978 554.761 396.329 553.279 388.926C552.582 385.447 552.385 385.212 551.865 387.246C551.532 388.547 550.987 389.633 550.655 389.661C550.322 389.689 547.847 388.242 545.154 386.445C542.462 384.648 539.005 382.587 537.472 381.864C534.738 380.576 534.713 380.59 536.147 382.554C538.692 386.042 550.979 395.793 555.83 398.174C559.875 400.159 560.514 400.894 560.625 403.682C560.91 410.887 556.602 411.478 547.064 405.541C543.188 403.129 538.924 400.645 537.588 400.023L535.159 398.891L537.119 401.003C538.197 402.164 542.618 405.394 546.942 408.182C558.151 415.406 563.154 419.36 563.221 421.048C563.369 424.78 555.288 420.846 541.007 410.234C537.509 407.636 534.819 406.414 532.94 406.573C529.411 406.87 523.501 403.183 503.233 388.037C494.594 381.582 481.195 372.42 473.457 367.679C457.614 357.97 452.271 353.786 451.313 350.337C450.825 348.58 449 347.36 444.261 345.621C440.218 344.138 436.965 342.137 435.409 340.18C434.057 338.478 431.974 336.906 430.782 336.686C428.529 336.271 415.526 328.532 407.437 322.792C404.049 320.388 402.585 318.576 402.055 316.13C401.245 312.399 399.155 310.954 395.067 311.299C391.549 311.596 389.994 310.042 389.837 306.078C389.767 304.326 389.147 302.201 388.457 301.356C386.379 298.806 367.734 285.944 366.971 286.532C366.58 286.833 365.045 285.199 363.561 282.901C360.107 277.554 356.048 273.395 355.042 274.171C353.015 275.732 354.902 279.015 360.444 283.568C368.282 290.008 365.935 291.139 356.619 285.412C348.847 280.633 346.36 280.046 346.478 283.018C346.54 284.578 347.357 285.123 349.907 285.301C353.269 285.535 353.828 286.633 352.899 291.184C352.666 292.326 353.762 292.776 357.145 292.932C361.168 293.116 362.488 293.872 368.369 299.364C372.034 302.787 376.999 306.449 379.401 307.502C385.645 310.239 386.336 310.895 385.345 313.152C384.391 315.329 385.867 316.186 389.973 315.84C392.675 315.612 396.203 317.857 406.038 326.057C409.648 329.068 413.805 331.774 415.276 332.071C419.319 332.885 419.433 334.941 415.452 335.277C411.946 335.573 410.24 337.253 411.869 338.806C412.395 339.306 416.656 340.016 421.339 340.382C434.807 341.434 439.36 344.437 430.468 346.404L426.287 347.328L429.191 348.417C430.789 349.017 434.921 350.388 438.373 351.465C452.717 355.94 453.961 356.897 447.765 358.686C440.601 360.756 443.408 363.048 454.254 363.986C460.055 364.486 462.224 365.245 466.461 368.251C472.94 372.848 473.103 374.112 467.149 373.575C459.412 372.877 456.96 373.241 456.69 375.129C456.364 377.41 460.673 378.446 470.442 378.437C485.108 378.423 487.695 379.855 476.781 381.943C471.993 382.859 470.17 383.614 470.212 384.665C470.298 386.845 474.419 387.196 483.008 385.756L490.711 384.464L496.363 388.773C499.472 391.144 501.835 393.302 501.614 393.571C501.392 393.84 497.607 393.787 493.203 393.455C486.872 392.977 484.749 393.152 483.066 394.29C481.842 395.118 481.308 396.083 481.809 396.56C482.942 397.639 494.569 398.453 501.26 397.923C508.454 397.352 512.839 398.471 516.088 401.707C519.483 405.089 518.471 406.251 511.628 406.828C507.191 407.202 506.881 407.4 506.976 409.79C507.07 412.151 507.412 412.319 511.353 411.932C513.705 411.702 518.206 410.925 521.356 410.207L527.084 408.901L534.452 415.727C538.504 419.482 540.951 422.297 539.889 421.983C532.068 419.674 524.284 419.334 517.435 421C499.632 425.334 474.444 440.307 459.804 455.261C457.614 457.499 454.9 459.404 453.772 459.495C452.646 459.586 448.474 457.608 444.503 455.1C440.532 452.592 437.032 450.844 436.727 451.215C436.172 451.887 442.642 457.776 448.39 461.833C450.055 463.007 451.434 464.378 451.453 464.879C451.473 465.38 450.324 467.408 448.899 469.385C447.474 471.362 445.471 475.001 444.447 477.471C442.221 482.843 441.445 482.784 433.979 476.683C422.725 467.488 419.567 465.499 416.675 465.783L413.824 466.062L416.027 467.489C418.763 469.263 418.801 470.053 416.356 474.319C414.562 477.449 414.553 477.567 416.25 475.771C418.748 473.129 419.371 473.176 426.996 476.597C434.854 480.123 439.805 483.83 439.901 486.259C439.985 488.381 435.657 496.782 433.005 499.642C431.909 500.825 430.583 501.412 429.892 501.021C429.079 500.56 428.888 500.826 429.301 501.839C430.052 503.679 427.201 511.805 424.647 515.101L422.772 517.521L417.799 515.307C410.135 511.894 402.539 506.215 402.445 503.823C402.399 502.681 401.952 502.063 401.45 502.45C400.948 502.836 397.226 500.865 393.178 498.069C389.13 495.273 385.386 493.021 384.859 493.065C382.829 493.236 384.152 495.229 388.543 498.614C391.055 500.55 394.208 502.991 395.549 504.038L397.989 505.941L393.983 513.519C389.469 522.058 386.891 527.842 387.626 527.78C387.897 527.757 390.359 523.618 393.096 518.581C396.193 512.885 398.7 509.372 399.734 509.285C401.787 509.112 417.278 517.988 418.649 520.122C420.168 522.488 418.97 526.635 415.465 531.14C413.726 533.373 412.569 535.612 412.892 536.113C413.215 536.615 412.435 538.936 411.16 541.273C407.846 547.341 405.514 547.193 398.588 540.475C395.504 537.484 391.9 533.694 390.578 532.053C388.235 529.143 380.909 525.408 379.914 526.617C379.639 526.949 380.258 528.901 381.287 530.955C382.554 533.479 383.841 534.681 385.261 534.667C386.417 534.655 389.273 536.315 391.607 538.354C393.942 540.393 397.944 543.395 400.501 545.024C405.428 548.164 406.657 551.422 403.951 554.167C402.787 555.347 400.901 554.407 392.264 548.34C383.77 542.374 382.01 540.697 382.227 538.771C382.515 536.204 381.66 535.953 378.929 537.8C377.889 538.504 377.175 540.093 377.234 541.576C377.32 543.74 377.599 543.959 379.035 542.989C381.341 541.428 385.78 543.992 393.067 551.093C398.703 556.586 400.641 560.144 399.687 563.25C398.97 565.586 396.591 565.398 392.823 562.706C387.551 558.94 386.431 560.891 391.352 565.266L395.62 569.06L393.887 573.217C391.592 578.715 381.987 594.492 377.45 600.21C375.115 603.154 373.24 604.645 372.141 604.43C370.887 604.186 369.749 605.591 367.793 609.801C362.391 621.427 339.26 642.259 325.032 648.311C317.861 651.362 313.77 651.691 309.16 649.591C300.239 645.527 272.959 623.006 242.459 594.526C228.84 581.807 208.572 563.165 197.418 553.099C163.992 522.929 137.735 497.995 120.84 480.379C100.82 459.505 96.5435 455.655 82.3273 445.705C67.0829 435.035 55.4913 424.623 57.629 423.521C58.489 423.077 64.906 421.769 71.8898 420.614C91.0505 417.444 104.43 410.479 127.719 391.55C140.988 380.766 150.555 371.114 173.907 344.955C208.14 306.606 214.624 300.443 227.345 294.168C237.518 289.151 257.216 282.183 270.063 279.058C283.788 275.72 309.736 273.245 319.579 274.337C325.554 274.999 326.528 275.412 327.117 277.533C327.885 280.295 329.06 280.344 339.321 278.04C344.878 276.793 346.356 275.945 351.314 271.17L356.969 265.722L361.107 270.475C370.135 280.841 396.328 301.398 396.194 298.011C396.117 296.064 386.754 287.102 381.666 284.106C378.794 282.415 376.434 280.772 376.422 280.455C376.381 279.429 379.044 273.591 379.573 273.546C381.047 273.422 385.043 276.142 391.209 281.467C397.489 286.892 400.587 288.527 400.502 286.373C400.484 285.921 398.944 284.145 397.081 282.426C394.895 280.411 393.869 278.693 394.188 277.586C395.299 273.739 400.322 266.053 410.618 252.451C416.592 244.559 421.47 237.849 421.458 237.538C421.354 234.914 400.809 259.828 396.776 267.47C391.574 277.329 392.122 276.95 386.641 274.473C382.927 272.795 381.799 271.743 381.726 269.894C381.592 266.526 385.127 260.543 393.307 250.289C402.886 238.283 405.061 233.19 397.791 239.787C391.181 245.785 386.797 251.781 384.087 258.526C382.358 262.831 380.325 266.127 378.664 267.317C376.945 268.549 376.2 269.79 376.554 270.831C376.855 271.716 376.307 273.612 375.335 275.046C373.895 277.168 373.241 277.467 371.801 276.661C370.828 276.117 369.856 274.893 369.641 273.94C369.194 271.959 371.793 268.035 373.657 267.878C374.36 267.819 374.647 267.14 374.313 266.322C373.428 264.152 377.309 254.717 383.037 245.119C385.833 240.433 387.836 236.332 387.489 236.007C386.37 234.961 377.596 247.363 374.61 254.212C371.613 261.084 369.183 262.755 366.146 260.031C365.425 259.386 365.929 260.714 367.265 262.983C369.522 266.818 369.587 267.237 368.19 268.933C366.793 270.63 366.478 270.645 363.699 269.147C360.189 267.257 359.055 265.159 361.008 264.17C363.114 263.104 362.589 261.383 360.441 262.311C354.932 264.693 360.893 257.125 381.782 235.218C391.352 225.183 404.762 210.415 411.583 202.401C428.224 182.849 435.037 178.111 452.79 173.745C467.396 170.153 482.308 169.486 495.636 171.829C504.82 173.444 509.286 173.675 517.619 172.966L528.075 172.075L536.845 166.473C546.544 160.277 548.639 159.76 554.541 162.105ZM423.126 268.545C414.006 281.173 412.739 284.766 421.336 273.623C427.536 265.586 431.739 258.869 430.503 258.973C430.232 258.996 426.912 263.303 423.126 268.545ZM670.654 243.827C669.365 244.383 664.947 246.621 660.837 248.801C654.476 252.174 652.265 252.839 645.991 253.262C638.599 253.762 636.209 255.272 641.536 256.075C646.907 256.886 654.571 255.642 660.339 253.025C667.103 249.955 676.219 244.552 676.904 243.207C677.481 242.073 673.894 242.429 670.654 243.827ZM377.199 296.338C379.616 297.818 382.414 299.895 383.416 300.953C385.186 302.823 385.183 302.882 383.331 303.038C380.999 303.234 373.806 298.511 372.276 295.779C370.738 293.033 372.041 293.181 377.199 296.338ZM703.177 272.392C702.965 272.65 697.397 273.783 690.802 274.911C682.237 276.375 677.455 277.719 674.064 279.611C671.453 281.068 669.333 282.665 669.352 283.159C669.396 284.262 669.042 284.302 675.124 282.531C677.899 281.723 685.027 280.191 690.964 279.125C703.232 276.924 709.486 274.926 710.994 272.726C711.856 271.472 711.305 271.272 707.798 271.568C705.468 271.764 703.389 272.135 703.177 272.392ZM240.561 318.031C226.722 324.075 212.956 335.332 202.177 349.419C194.524 359.422 181.983 380.274 182.085 382.829C182.187 385.399 184.746 385.084 185.409 382.418C186.401 378.431 196.892 362.434 205.799 351.329C216.318 338.217 226.489 328.898 238.733 321.154C248.284 315.113 248.641 314.503 240.561 318.031ZM487.681 306.317C481.809 313.464 472.989 327.961 473.953 328.879C474.207 329.121 475.483 327.365 476.788 324.975C478.092 322.587 482.106 316.572 485.706 311.611C489.305 306.651 492.802 301.734 493.476 300.689C495.992 296.783 493.615 299.092 487.681 306.317ZM516.37 313.663C507.57 324.003 498.371 337.694 495.429 344.833C492.303 352.419 492.684 353.854 496.136 347.49C500.921 338.666 509.406 326.045 515.924 318.054C529.913 300.905 530.278 297.324 516.37 313.663ZM734.833 293.882C738.689 297.473 742.827 300.593 744.028 300.814C745.23 301.035 748.559 303.108 751.427 305.419C756.711 309.679 758.412 310.067 758.822 307.103C758.967 306.051 757.108 304.402 753.638 302.506C749.474 300.232 748.335 299.112 748.698 297.651C749.087 296.087 748.78 295.892 746.956 296.546C745.468 297.08 743.722 296.65 741.635 295.236C739.925 294.079 736.549 291.796 734.132 290.162C727.024 285.36 727.311 286.879 734.833 293.882ZM262.964 330.04C254.654 335.659 243.471 346.918 238.14 355.034C235.209 359.495 232.822 363.431 232.836 363.78C232.85 364.129 236.654 359.916 241.288 354.418C248.47 345.899 257.158 337.272 266.778 329.108C270.181 326.22 267.727 326.82 262.964 330.04ZM759.147 286.589C759.207 288.093 763.504 291.249 768.48 293.443C778.835 298.01 780.966 296.951 771.98 291.705C766.322 288.403 760.599 285.618 759.637 285.699C759.349 285.723 759.129 286.124 759.147 286.589ZM546.033 324.967C530.693 339.794 523.113 350.822 522.173 359.684C521.753 363.639 521.829 363.553 523.802 357.822C526.787 349.147 530.236 344.422 542.333 332.437C552.043 322.815 556.597 317.209 554.564 317.38C554.153 317.415 550.315 320.828 546.033 324.967ZM811.934 304.673C811.749 309.07 811.219 314.542 810.758 316.832C809.686 322.142 803.138 330.341 799.739 330.627C797.466 330.819 797.343 330.579 797.6 326.439C798.732 308.184 799.803 304.54 804.477 303.025C805.983 302.538 808.155 300.927 809.302 299.445C810.45 297.965 811.587 296.737 811.83 296.716C812.072 296.696 812.12 300.277 811.934 304.673ZM825.428 307.434L827.979 309.32L821.501 314.703C812.454 322.224 811.971 322.118 813.215 312.904C814.857 300.757 814.546 301.257 819.033 303.569C821.147 304.658 824.026 306.398 825.428 307.434ZM795.045 316.89C794.611 334.132 793.456 336.307 780.237 344.765L772.803 349.522L773.194 344.518C773.905 335.419 775.557 320.186 775.875 319.803C776.939 318.514 792.214 309.677 793.574 309.562C795.044 309.438 795.212 310.273 795.045 316.89ZM300.836 358.768C296.773 362.166 291.408 367.577 288.913 370.794C285.518 375.172 285.295 375.623 288.03 372.588C290.04 370.358 295.775 364.904 300.776 360.468C311.454 350.995 311.494 349.856 300.836 358.768ZM771.696 322.289C772.425 324.077 770.603 348.176 769.453 351.96C768.733 354.326 758.328 362.336 756.667 361.802C755.605 361.46 755.984 354.816 757.683 343.987C758.487 338.858 759.079 332.982 758.997 330.93C758.84 326.971 760.402 324.513 764.403 322.42C767.911 320.584 770.977 320.529 771.696 322.289ZM756.862 325.249C756.888 325.954 756.243 331.343 755.429 337.226C754.615 343.11 754.027 349.917 754.124 352.354C754.22 354.792 754.112 358.953 753.882 361.604C753.479 366.257 753.231 366.605 746.722 371.66C743.014 374.54 739.493 377.605 738.899 378.472C736.787 381.551 735.209 380.497 735.026 375.887C734.742 368.717 735.985 354.76 738.027 342.193C739.08 335.71 739.676 329.994 739.352 329.49C739.026 328.986 739.32 328.497 740.003 328.403C740.686 328.309 743.787 327.393 746.894 326.367C754.19 323.956 756.803 323.664 756.862 325.249ZM716.662 329.967C717.533 332.101 715.586 351.811 711.316 384.095C710.693 388.807 710.755 390.891 711.539 391.638C714.074 394.053 715.905 382.819 717.931 352.429C718.651 341.627 719.571 331.702 719.974 330.373C720.67 328.087 721.131 327.937 728.573 327.592L736.436 327.228L736.856 330.443C737.087 332.211 735.91 342.023 734.24 352.249C732.57 362.474 731.001 373.304 730.752 376.317C730.144 383.706 727.742 386.876 714.891 397.241C690.907 416.591 688.994 417.647 688.748 411.68C688.673 409.849 691.001 391.34 693.921 370.549C699.789 328.776 698.658 332.322 705.576 334.009C707.564 334.494 707.762 334.302 707.143 332.496C706.586 330.871 706.9 330.29 708.596 329.792C713.321 328.408 716.05 328.467 716.662 329.967ZM696.197 334.765C696.231 335.628 695.151 341.14 693.796 347.014C690.875 359.676 686.322 397.257 686.543 406.879C686.804 418.244 686.394 419.341 679.915 424.602C672.512 430.614 669.676 432.525 669.045 431.924C668.769 431.661 669.165 426.115 669.927 419.6C670.688 413.085 672.032 397.749 672.913 385.52C675.055 355.793 676.479 342.407 677.703 340.508C678.877 338.685 689.678 333.883 693.523 333.474C695.258 333.289 696.156 333.722 696.197 334.765ZM672.609 340.854C673.634 342.036 673.584 344.802 672.346 355.524C671.506 362.791 669.827 382.234 668.614 398.731C667.401 415.227 666.071 430.445 665.657 432.549C664.505 438.419 654.511 447.93 650.77 446.719C649.541 446.321 649.486 445.208 650.348 438.128C652.494 420.49 656.754 371.332 657.109 360.128C657.51 347.449 657.987 344.635 659.761 344.486C660.378 344.434 662.525 343.328 664.532 342.028C668.901 339.198 670.921 338.904 672.609 340.854ZM656.624 347.173C656.647 347.818 656.048 354.641 655.293 362.336C654.538 370.032 652.745 389.61 651.309 405.843C647.704 446.597 647.507 447.943 644.551 452.018C640.662 457.38 631.82 464.546 630.566 463.352C629.43 462.269 631.701 429.971 635.858 388.13C639.75 348.957 639.165 351.832 643.691 349.601C652.346 345.334 656.53 344.549 656.624 347.173ZM854.359 334.384C854.193 336.212 853.443 336.978 851.406 337.403C848.954 337.914 848.725 337.721 849.172 335.535C849.446 334.195 849.664 332.786 849.656 332.404C849.635 331.378 852.804 330.502 853.759 331.271C854.211 331.635 854.481 333.036 854.359 334.384ZM572.203 358.904C572.246 359.975 581.3 368.512 583.665 369.71C585.073 370.423 584.974 370.019 583.134 367.539C577.974 360.58 572.085 355.93 572.203 358.904ZM635.506 354.816C635.872 355.383 635.634 359.682 634.976 364.368C631.479 389.31 625.492 452 625.819 460.252C626.186 469.51 625.533 471.867 622.16 473.448C620.852 474.061 619.4 473.245 616.551 470.296C612.01 465.596 611.744 463.599 613.977 450.958C615.665 441.392 616.037 436.406 618.049 396.367C619.764 362.22 620.274 360.452 629.78 355.638C633.507 353.751 634.708 353.579 635.506 354.816ZM617.894 371.143C617.704 373.986 616.585 383.533 615.408 392.359C614.231 401.186 612.904 415.868 612.46 424.986C611.454 445.653 609.931 462.956 609.022 464.059C608.321 464.91 598.647 463.696 596.518 462.49C594.404 461.29 594.676 446.638 597.24 423.764C598.614 411.494 599.893 395.459 600.08 388.131C600.477 372.614 600.491 372.586 610.214 367.358C617.774 363.295 618.397 363.602 617.894 371.143ZM342.546 400.956C335.428 408.188 319.229 428.22 313.038 437.449C310.827 440.745 315.555 435.438 323.545 425.657C331.536 415.875 340.692 405.019 343.892 401.531C347.092 398.043 349.538 395.024 349.327 394.823C349.115 394.622 346.065 397.382 342.546 400.956ZM595.777 403.358C593.423 422.931 592.883 431.127 593.034 444.968C593.242 464.135 593.513 463.331 586.184 465.271C582.204 466.324 582.14 466.293 580.412 462.536C579.042 459.559 578.563 455.74 578.2 444.899C577.452 422.591 580.129 403.524 585.605 392.165C588.207 386.767 596.725 377.094 597.896 378.209C598.343 378.635 597.389 389.952 595.777 403.358ZM557.909 383.286C557.917 383.507 558.599 383.907 559.424 384.175C560.284 384.453 560.658 384.249 560.303 383.697C559.706 382.77 557.876 382.456 557.909 383.286ZM815.537 361.653C815.548 361.922 813.883 363.229 811.837 364.555C809.791 365.881 808.102 366.579 808.083 366.107C808.064 365.634 809.409 364.385 811.073 363.329C814.26 361.308 815.505 360.841 815.537 361.653ZM804.352 368.233C804.407 369.627 797.802 375.016 796.761 374.426C795.135 373.505 799.328 369.449 804.078 367.349C804.208 367.292 804.33 367.69 804.352 368.233ZM791.371 377.637C791.441 379.389 786.607 384.289 785.679 383.405C784.427 382.212 785.532 379.526 787.867 378.082C790.54 376.431 791.319 376.332 791.371 377.637ZM401.206 412.418C386.311 419.59 376.581 429.613 366.01 448.673C359.468 460.468 353.24 477.23 355.468 477.042C355.989 476.998 357.02 474.252 357.759 470.938C361.077 456.077 376.328 435.121 393.022 422.482C403.052 414.888 408.581 409.924 406.836 410.08C406.313 410.126 403.78 411.179 401.206 412.418ZM566.028 409.893C566.117 414.53 564.459 416.902 562.307 415.218C560.538 413.836 560.527 408.831 562.286 406.696C564.56 403.935 565.936 405.111 566.028 409.893ZM778.477 388.93C777.325 391.556 774.207 393.783 773.411 392.549C772.819 391.629 777.001 387.022 778.547 386.892C779.017 386.852 778.986 387.769 778.477 388.93ZM766.412 397.662C766.423 397.935 764.339 399.505 761.781 401.154C759.223 402.802 757.113 403.692 757.09 403.133C757.068 402.574 758.619 401.068 760.535 399.787C763.907 397.533 766.371 396.643 766.412 397.662ZM575.514 435.668C575.579 452.151 575.14 453.512 571.618 447.733C569.805 444.76 569.803 444.601 571.513 441.657C572.758 439.513 573.345 436.117 573.531 429.974C573.771 422.034 574.262 418.85 575.121 419.668C575.303 419.841 575.479 427.041 575.514 435.668ZM746.008 412.297C741.851 416.759 738.952 418.672 737.888 417.658C736.995 416.808 740.397 412.724 744.02 410.299C749.436 406.673 750.372 407.613 746.008 412.297ZM516.104 435.529C516.144 436.537 515.669 439.931 515.048 443.07C512.555 455.682 510.522 494.118 510.38 531.306C510.295 553.788 509.669 557.944 505.51 563.637C502.588 567.635 492.579 575.648 491.632 574.746C490.786 573.94 490.577 563.78 491.205 553.994C491.516 549.162 491.893 531.323 492.044 514.35C492.343 480.735 493.422 452.651 494.646 446.667C495.64 441.811 496.857 440.639 504.524 437.155C512.491 433.534 516.005 433.041 516.104 435.529ZM531.67 435.049C534.162 435.743 536.692 437.19 537.293 438.264C538.681 440.744 538.38 449.924 535.695 487.021C534.543 502.943 533.788 520.73 534.019 526.546C534.249 532.362 534.031 538.048 533.534 539.182C532.544 541.438 516.833 554.916 515.014 555.07C513.793 555.173 513.673 544.501 514.6 518.101C515.058 505.041 515.51 497.29 517.718 464.646C518.209 457.397 518.573 447.654 518.529 442.996L518.448 434.525L522.795 434.156C525.185 433.952 529.179 434.355 531.67 435.049ZM553.079 436.374C554.822 437.599 557.944 440.562 560.017 442.96C562.09 445.358 565.425 448.076 567.429 449.001C569.433 449.925 571.142 451.013 571.225 451.418C571.31 451.824 571.531 454.392 571.718 457.123C572.018 461.55 572.455 462.394 575.714 464.852C577.727 466.37 579.401 468.307 579.435 469.156C579.469 470.004 577.721 473.09 575.551 476.012C568.899 484.973 563.816 509.451 567.682 513.913C568.691 515.078 568.333 515.94 565.652 518.811C563.863 520.726 561.344 522.383 560.055 522.492C557.891 522.674 557.697 522.314 557.518 517.793C557.411 515.101 557.925 506.385 558.658 498.425C559.393 490.465 559.986 478.17 559.977 471.105C559.961 458.92 559.895 458.467 558.695 462.306C556.953 467.881 555.577 486.542 555.6 504.273C555.61 512.63 555.154 520.231 554.552 521.72C553.321 524.764 538.577 538.305 537.554 537.332C536.823 536.635 537.832 507.125 539.653 475.902C540.266 465.392 540.632 453.246 540.467 448.912C540.302 444.578 540.554 440.734 541.027 440.37C541.5 440.005 546.452 443.097 552.03 447.241C557.609 451.385 562.736 455.189 563.425 455.693C565.696 457.359 565.787 455.364 563.594 451.962C560.793 447.615 547.029 435.193 545.185 435.348C544.403 435.414 543.742 434.971 543.718 434.363C543.649 432.606 549.508 433.866 553.079 436.374ZM731.072 420.503C731.158 422.686 724.606 431.406 722.691 431.655C721.239 431.844 721.848 426.809 723.603 424.11C725.174 421.694 726.216 421.038 730.332 419.877C730.721 419.767 731.054 420.05 731.072 420.503ZM491.71 445.775C491.75 446.764 491.407 449.221 490.95 451.235C486.97 468.763 485.106 528.088 487.483 561.594C488.186 571.531 488.213 577.244 487.563 578.727C487.026 579.951 483.98 582.904 480.792 585.29C473.322 590.88 449.914 610.547 433.634 624.91C426.622 631.096 420.588 635.875 420.224 635.528C418.027 633.439 418.042 573.028 420.245 553.81C421.572 542.234 425.703 531.829 429.928 529.424C432.498 527.961 432.938 527.164 432.82 524.191C432.738 522.123 434.025 517.556 435.956 513.062L439.231 505.441L439.721 510.025C439.99 512.546 439.915 519.028 439.554 524.429C438.764 536.263 439.424 596.042 440.435 604.271C441.403 612.151 441.906 613.566 442.994 611.479C443.447 610.609 443.502 601.748 443.116 591.788C442.306 570.945 442.605 516.682 443.585 506.382C443.95 502.548 445.025 496.956 445.975 493.955C447.831 488.088 452.976 478.103 455.409 475.649C456.772 474.272 456.87 474.807 456.54 481.882C455.636 501.307 455.451 517.884 455.777 550.3C455.971 569.505 455.775 586.589 455.343 588.264C453.431 595.68 455.842 605.722 458.575 601.727C459.163 600.868 459.225 587.424 458.74 565.982C457.885 528.106 457.931 493.536 458.852 481.915C459.18 477.774 460.204 472.6 461.126 470.417C466.029 458.822 491.417 438.366 491.71 445.775ZM43.3084 491.234C43.374 492.888 43.1043 493.208 42.2945 492.436C41.6878 491.858 41.4594 490.86 41.7859 490.218C42.7018 488.42 43.2103 488.759 43.3084 491.234ZM714.453 434.366C714.538 436.522 709.077 444.143 707.341 444.289C705.195 444.47 706.154 439.782 708.991 436.233C712.262 432.14 714.336 431.431 714.453 434.366ZM53.7076 498.708C55.7123 500.338 56.1715 501.311 55.5612 502.639C54.8174 504.256 54.4874 504.257 51.6053 502.653C48.6178 500.99 47.6251 499.022 48.9583 497.404C49.9657 496.181 50.9185 496.443 53.7076 498.708ZM700.826 442.571C701.615 443.795 698.32 451.973 695.81 455.02C691.787 459.903 691.257 458.881 692.673 448.971C692.848 447.743 694.347 445.658 696.003 444.339C699.319 441.7 700.084 441.42 700.826 442.571ZM472.653 468.446C468.433 497.321 467.179 581.113 470.893 585.99C473.994 590.061 474.399 586.55 473.493 563.392C472.602 540.574 473.084 515.705 474.884 491.673C475.961 477.285 475.685 462.794 474.335 462.908C473.849 462.949 473.092 465.44 472.653 468.446ZM61.8297 506.175C63.6319 508.256 64.5524 512.878 63.1873 512.993C61.1339 513.166 58.3648 510.13 58.2643 507.595C58.1613 504.995 60.1294 504.212 61.8297 506.175ZM685.445 459.389C683.466 464.799 679.029 470.088 677.607 468.733C676.054 467.254 678.849 459.532 682.173 456.114C685.981 452.2 687.514 453.734 685.445 459.389ZM410.098 484.036C408.759 485.401 407.038 488.4 406.274 490.703L404.883 494.888L407.236 492.2C409.062 490.113 409.961 489.717 411.254 490.432C412.17 490.937 415.546 492.655 418.757 494.248C424.174 496.935 424.382 496.966 421.635 494.671C420.007 493.311 417.027 491.192 415.01 489.961C411.101 487.574 410.739 486.751 412.164 483.5C413.297 480.918 413.108 480.968 410.098 484.036ZM74.0135 519.907C74.15 523.351 72.428 524.038 69.7187 521.621C67.1607 519.339 66.3722 515.258 68.3075 514.32C70.0538 513.473 73.9081 517.248 74.0135 519.907ZM671.899 467.719C671.99 470.014 666.867 479.462 664.591 481.199C663.453 482.067 662.669 482.104 661.853 481.327C660.147 479.702 663.95 470.821 667.514 468.108C671.124 465.359 671.803 465.299 671.899 467.719ZM604.432 482.099C606.732 486.325 605.579 486.291 601.539 482.015C597.196 477.417 596.228 473.378 600.345 477.03C601.756 478.281 603.595 480.562 604.432 482.099ZM82.2206 525.163C84.551 529.837 84.6882 535.078 82.4739 534.826C80.1552 534.562 76.8511 527.822 77.4616 524.601C78.1495 520.972 80.2559 521.221 82.2206 525.163ZM595.165 484.047C599.117 488.144 600.26 490.321 598.537 490.467C597.074 490.59 588.566 482.951 588.507 481.46C588.4 478.75 591.048 479.779 595.165 484.047ZM656.485 478.225C657.324 479.526 655.597 486.283 653.713 489.073C652.395 491.024 651.723 491.356 650.814 490.505C649.91 489.66 649.856 488.579 650.583 485.944C652.384 479.432 655.031 475.968 656.485 478.225ZM587.809 490.384C592.305 493.422 593.672 495.576 592.22 497.338C589.994 500.04 582.356 494.724 582.183 490.353C582.05 487 582.804 487.004 587.809 490.384ZM92.7611 536.155C95.0215 540.386 95.6731 545.201 94.0038 545.342C92.3563 545.481 87.199 539.731 87.1171 537.665C87.0524 536.032 89.2074 532.384 90.2912 532.293C90.5051 532.275 91.6155 534.013 92.7611 536.155ZM645.026 487.586C645.129 490.189 641.933 498.636 640.166 500.429C636.545 504.102 635.964 496.099 639.361 489.337C641.37 485.337 644.893 484.248 645.026 487.586ZM631.215 500.817L631.421 506.709L625.97 511.583C617.751 518.933 609.332 524.206 608.321 522.637C607.017 520.613 610.082 506.967 611.874 506.816C612.079 506.799 612.878 506.465 613.65 506.074C614.788 505.498 615.059 506.29 615.086 510.285C615.115 514.306 615.441 515.25 616.87 515.443C620.004 515.864 622.046 512.312 622.475 505.693C622.829 500.231 623.208 499.261 625.753 497.324C630.346 493.827 630.985 494.236 631.215 500.817ZM582.578 501.023C583.368 501.483 583.778 502.145 583.488 502.496C582.771 503.367 579.796 502.328 579.751 501.191C579.705 500.024 580.753 499.961 582.578 501.023ZM104.913 547.479C109.515 556.082 108.374 560.751 103.005 555.294C101.09 553.348 100.537 551.701 100.308 547.274C99.9518 540.362 101.135 540.416 104.913 547.479ZM573.216 509.524C574.629 512.472 573.175 514.118 571.617 511.335C571.024 510.276 570.519 508.917 570.495 508.317C570.417 506.332 572.028 507.049 573.216 509.524ZM403.384 528.44C405.263 530.014 407.189 531.269 407.666 531.229C409.109 531.108 406.64 528.86 403.205 527.17L399.969 525.577L403.384 528.44ZM115.327 556.18C117.686 558.579 120.211 564.463 119.335 565.524C117.263 568.04 109.913 559.49 111.028 555.862C111.745 553.527 112.792 553.604 115.327 556.18ZM600.773 521.129C600.609 522.847 601.059 525.584 601.772 527.213C602.805 529.568 602.841 530.507 601.948 531.809C600.342 534.151 597.273 534.167 597.181 531.835C597.139 530.783 596.16 528.771 595.004 527.362C592.421 524.212 592.958 522.131 596.932 519.893C601.069 517.564 601.112 517.577 600.773 521.129ZM128.349 569.721C130.051 571.575 131.481 574.052 131.528 575.224C131.61 577.292 131.533 577.309 128.928 575.818C125.238 573.703 122.769 570.815 122.677 568.507C122.558 565.503 124.95 566.015 128.349 569.721ZM589.848 529.761C588.811 531.678 588.599 533.606 589.122 536.354C589.93 540.595 588.974 542.216 584.065 544.937L581.457 546.382L581.944 542.703C582.299 540.021 581.993 538.561 580.812 537.313C579.314 535.73 579.312 535.472 580.8 533.869C583.236 531.247 588.737 527.277 590.102 527.157C590.987 527.08 590.918 527.779 589.848 529.761ZM417.474 556.356C415.865 571.267 415.476 591.46 416.363 614.052L417.359 639.449L413.478 643.81C403.868 654.609 402.9 653.582 403.863 633.61C404.268 625.214 404.216 608.662 403.747 596.83C402.788 572.636 402.452 574.428 410.643 560.016C415.847 550.858 418.203 549.597 417.474 556.356ZM574.794 544.633C574.971 549.114 572.532 555.741 570.491 556.325C569.56 556.592 568.441 555.106 567.22 551.978L565.365 547.227L568.118 544.168C569.632 542.485 571.72 541.038 572.758 540.95C574.304 540.82 574.672 541.484 574.794 544.633ZM139.801 580.769C140.664 581.952 141.404 583.74 141.443 584.742C141.551 587.456 139.144 587.142 137.763 584.261C135.329 579.186 136.803 576.66 139.801 580.769ZM561.348 552.448C559.866 562.435 559.073 565.805 557.929 566.965C556.334 568.584 556.453 568.704 553.676 562.677C551.202 557.307 551.273 557.084 556.722 553.037C561.245 549.677 561.77 549.61 561.348 552.448ZM148.689 589.639C149.761 592.268 149.519 594.111 148.083 594.232C147.334 594.295 146.415 593.451 146.04 592.357C144.873 588.953 147.365 586.395 148.689 589.639ZM547.88 563.422C548.031 567.234 545.723 575.674 544.071 577.35C543.043 578.394 542.75 578.369 542.705 577.233C542.673 576.438 541.72 574.052 540.587 571.929C539.454 569.807 538.513 567.742 538.497 567.339C538.469 566.616 545.693 561.007 547.057 560.694C547.447 560.604 547.817 561.832 547.88 563.422ZM159.24 600.145C162.365 602.626 164.381 606.04 163.632 607.584C163.136 608.608 156.099 603.973 154.56 601.61C153.411 599.845 153.787 597.862 155.295 597.735C155.747 597.697 157.522 598.782 159.24 600.145ZM400.174 592.309C400.796 610.906 400.065 652.704 399.08 654.941C398.522 656.204 396.3 658.89 394.142 660.909C391.983 662.928 389.506 665.545 388.635 666.725C387.676 668.025 386.427 668.665 385.46 668.352C384.044 667.894 383.871 666.223 383.894 653.212C383.937 628.096 384.537 608.377 385.381 604.292C386.314 599.777 397.517 582.064 398.933 582.866C399.452 583.16 400.01 587.41 400.174 592.309ZM534.861 571.848C535.06 576.883 531.631 589.644 530.041 589.778C529.066 589.861 526.294 576.85 526.994 575.474C527.537 574.409 532.642 571.181 534.111 570.974C534.503 570.919 534.84 571.312 534.861 571.848ZM173.171 615.987C175.383 618.391 177.205 620.662 177.22 621.034C177.234 621.405 174.387 619.286 170.892 616.326C167.397 613.365 164.739 610.549 164.984 610.068C165.616 608.826 168.509 610.918 173.171 615.987ZM521.641 584.062C521.428 585.636 521.049 589.02 520.799 591.585C520.55 594.15 519.874 597.364 519.298 598.726C518.394 600.866 518.085 601.01 517.019 599.779C516.034 598.641 516.054 597.561 517.121 594.395C518.313 590.857 518.295 590.265 516.948 588.843C514.887 586.664 514.996 585.41 517.431 583.311C520.68 580.512 522.09 580.763 521.641 584.062ZM507.822 595.297C506.401 596.819 504.761 597.794 504.176 597.463C502.838 596.705 506.639 592.766 508.845 592.626C510 592.553 509.735 593.245 507.822 595.297ZM187.397 627.923C191.177 631.925 191.7 633.174 190.106 634.402C188.844 635.375 179.96 626.912 180.706 625.447C181.772 623.355 183.785 624.1 187.397 627.923ZM382.191 609.249C382.473 609.685 382.118 616.075 381.402 623.448C380.505 632.688 380.318 642.496 380.798 655C381.598 675.795 382.09 674.312 371.831 681.986C368.774 684.272 364.253 687.897 361.785 690.04C359.152 692.327 356.931 693.59 356.412 693.096C355.893 692.601 355.809 690.13 356.21 687.117C356.587 684.293 356.871 674.815 356.843 666.054C356.75 636.483 356.846 635.543 360.461 630.697C365.688 623.691 366.509 624.489 366.159 636.231C365.747 650.065 366.653 673.438 367.716 676.355C369.479 681.196 369.93 675.637 369.64 652.641C369.275 623.693 369.602 621.549 375.497 614.246C380.041 608.617 381.218 607.738 382.191 609.249ZM498.863 602.429C498.873 602.853 497.43 604.366 495.657 605.792C493.884 607.219 492.415 607.915 492.392 607.337C492.369 606.76 493.704 605.258 495.359 603.998C498.765 601.406 498.837 601.373 498.863 602.429ZM509.399 603.596C509.492 606.46 508.562 610.091 507.718 610.162C506.331 610.279 505.574 606.363 506.553 604.132C507.723 601.465 509.321 601.164 509.399 603.596ZM200.967 640.247C204.352 643.708 205.149 647.698 202.168 646.264C199.534 644.996 195.013 639.61 195.605 638.447C196.488 636.714 198.012 637.226 200.967 640.247ZM499.35 614.449C499.49 617.972 494.569 624.558 492.939 623.029C491.381 621.566 493.091 616.077 495.849 613.692C498.535 611.368 499.234 611.519 499.35 614.449ZM485.524 626.681C485.623 629.338 481.993 635.084 480.343 634.886C477.94 634.598 477.683 631.001 479.864 628.166C481.896 625.523 485.447 624.591 485.524 626.681ZM354.155 643.126C354.837 645.583 354.48 651.421 352.35 672.6C351.279 683.25 351.669 694.116 353.236 697.33C353.849 698.589 352.104 700.594 345.267 706.482C335.926 714.528 332.723 715.912 332.361 712.06C331.796 706.068 330.737 664.151 331.054 660.339C331.372 656.511 331.974 655.554 336.301 651.992C338.988 649.78 341.458 648.227 341.789 648.541C342.909 649.607 342.779 659.472 341.454 674.003C340.027 689.658 340.136 702.936 341.699 703.822C343.334 704.748 344.107 700.062 344.281 688.185C344.677 661.235 345.17 649.882 346.071 646.919C347.875 640.984 352.903 638.625 354.155 643.126ZM472.155 639.115C471.272 642.922 469.111 646.469 467.877 646.135C465.834 645.583 465.895 642.345 467.999 639.631C470.67 636.184 472.899 635.908 472.155 639.115ZM226.948 665.462C229.44 668.094 232.872 675.939 231.759 676.457C229.472 677.522 221.17 667.403 222.38 665.028C223.2 663.417 225.192 663.605 226.948 665.462ZM329.68 686.318C330.449 713.115 330.388 715.093 328.751 716.51C326.643 718.333 326.548 723.086 328.624 722.911C330.975 722.713 330.323 724.49 326.706 728.137C322.952 731.922 321.117 732.55 320.223 730.357C319.637 728.924 321.299 709.778 322.609 702.861C323.237 699.547 323.304 699.726 323.329 704.766C323.347 708.698 323.741 710.434 324.673 710.689C325.756 710.985 325.8 709.378 324.919 701.638C324.33 696.462 323.321 686.892 322.678 680.373C321.687 670.353 321.519 669.631 321.588 675.708C321.657 681.729 321.495 682.494 320.593 680.417C319.533 677.98 319.616 666.94 320.71 664.792C321.062 664.099 321.59 664.181 322.141 665.016C322.795 666.006 322.996 665.815 322.946 664.259C322.849 661.293 325.446 657.224 327.292 657.45C328.704 657.623 328.937 660.436 329.68 686.318ZM461.672 650.474C461.741 652.211 460.807 653.03 457.045 654.527C453.071 656.11 452.549 654.296 456.182 651.531C459.79 648.784 461.591 648.438 461.672 650.474ZM241.91 678.398C243.625 680.032 243.24 681.8 241.13 681.978C240.257 682.052 240.027 682.697 240.468 683.833C241.077 685.396 240.927 685.392 239.007 683.797C235.971 681.275 236.051 677.267 239.143 677.006C239.803 676.951 241.047 677.577 241.91 678.398ZM446.676 662.848C445.032 665.876 440.831 668.965 439.765 667.929C438.82 667.014 444.701 660.702 446.651 660.538C447.784 660.442 447.788 660.798 446.676 662.848ZM255.583 691.508C256.531 692.583 257.335 693.888 257.367 694.407C257.446 695.689 252.573 691.287 251.2 688.838C250.182 687.02 250.239 686.974 251.978 688.214C253.012 688.951 254.633 690.433 255.583 691.508ZM433.982 673.815C434.034 675.124 431.33 677.651 430.61 676.966C429.89 676.279 431.897 673.088 433.112 672.986C433.571 672.947 433.963 673.32 433.982 673.815ZM423.894 684.006C423.916 684.549 423.097 685.559 422.076 686.251C420.029 687.635 419.524 686.556 421.242 684.471C422.558 682.874 423.84 682.648 423.894 684.006ZM300.02 739.486C302.537 741.769 303.265 742.969 302.38 743.384C301.677 743.714 299.059 742.038 296.563 739.66C292.997 736.263 292.491 735.427 294.203 735.762C295.401 735.996 298.019 737.672 300.02 739.486ZM310.13 749.653C314.567 753.963 314.767 754.829 310.917 753.056C307.765 751.604 304.359 748.427 304.297 746.882C304.206 744.578 305.577 745.23 310.13 749.653ZM345.032 750.076C343.456 751.904 343.43 751.879 344.427 749.5C345.002 748.131 345.743 747.27 346.075 747.586C346.408 747.903 345.938 749.023 345.032 750.076Z" fill="black"/>
</g>
<defs>
<clipPath id="clip0_312_1967">
<rect width="900" height="900" rx="450" fill="white"/>
</clipPath>
</defs>
</svg>
